<?xml version="1.0" encoding="utf-8"?>
<!-- Generator: Adobe Illustrator 16.0.4, SVG Export Plug-In . SVG Version: 6.00 Build 0)  -->
<!DOCTYPE svg PUBLIC "-//W3C//DTD SVG 1.1//EN" "http://www.w3.org/Graphics/SVG/1.1/DTD/svg11.dtd">
<svg version="1.1" id="Layer_1" xmlns="http://www.w3.org/2000/svg" xmlns:xlink="http://www.w3.org/1999/xlink" x="0px" y="0px"
	 width="481.436px" height="176.936px" viewBox="0 0 481.436 176.936" enable-background="new 0 0 481.436 176.936"
	 xml:space="preserve">
<g>
	<path fill="#87C6BD" d="M387.062,66.728c0.004-0.001,0.008-0.003,0.012-0.003C387.009,66.723,387.021,66.725,387.062,66.728z"/>
	<path fill="#87C6BD" d="M58.596,0.186c-0.059-0.047-0.124-0.083-0.186-0.142l0.106,0.155C58.518,0.198,58.562,0.19,58.596,0.186z"
		/>
	<path fill="#87C6BD" d="M65.764,66.93c0.035-0.072,0.086-0.139,0.116-0.209C65.786,66.794,65.764,66.863,65.764,66.93z"/>
	<path fill="#87C6BD" d="M92.921,168.29l-0.472,0.034c0.133,0.093,0.252,0.135,0.355,0.133
		C92.847,168.41,92.886,168.353,92.921,168.29z"/>
	<path fill="#87C6BD" d="M93.413,170.713c1.351,1.86,0.519,0.327,0.495-0.273l-0.316,0.1c-0.738-1.182-0.196-1.705-0.518-2.336
		c-0.043,0.042-0.083,0.108-0.123,0.174l0.131-0.008c-0.05,0.139-0.142,0.175-0.247,0.175c-0.104,0.124-0.239,0.167-0.464-0.129
		l0.107-0.004c-0.466-0.326-1.045-1.086-1.31-1.438c-0.016-0.038-0.025-0.066-0.044-0.107c-2.839-6.163-36.642-53.354-44.322-64.415
		c0.097-0.091,0.21-0.176,0.357-0.247c0,0-0.213,0.05-0.456,0.106c-0.036-0.053-0.067-0.099-0.103-0.147
		c0.126-0.053,0.162-0.084-0.052-0.075c-0.152-0.22-0.292-0.423-0.418-0.607c4.69-2.902,11.948-7.618,19.703-13.501
		c0.184,0.025,0.369,0.037,0.548,0.011l-0.293-0.204c3.066-2.333,6.205-4.847,9.291-7.5c0.318-0.107,0.594-0.201,0.787-0.286
		c-0.139,0.003-0.299,0.004-0.439-0.015c0.224-0.193,0.449-0.386,0.673-0.581c0.057-0.006,0.117-0.019,0.182-0.048
		c-0.017-0.023-0.024-0.052-0.039-0.076c0.811-0.71,1.614-1.433,2.413-2.16l0.115,0.21l-0.003-0.312
		C93.134,64.166,104.885,48.63,101.4,34.465c0.287-1.533,0.06-3.279-0.443-4.967c-0.271-1.198-0.744-2.351-1.107-3.472
		c-0.177-0.562-0.329-1.115-0.435-1.667c-0.146-0.562-0.281-1.128-0.336-1.691l-1.19-0.801c0.19-1.566-0.994-3.325-2.162-4.947
		c-0.605-0.744-1.236-1.504-1.816-2.318c-0.623-0.751-1.19-1.562-1.643-2.494c-0.119-0.054-0.276-0.126-0.458-0.211
		c-0.252-0.12-0.665-0.36-1.152-0.663c-0.062-0.068-0.113-0.087-0.065-0.041c-1.873-1.162-4.839-3.202-4.839-3.202
		s-3.018-1.654-3.886-1.958c-0.866-0.311-1.654-0.615-2.398-0.901c-1.479-0.638-2.769-1.278-4.063-1.898
		c-4.233-2-20.995-4.084-34.317-2.87c-4.097,0.628-8.24,1.758-12.219,2.886c0,0-2.07,1.343-2.575,1.585
		c-0.504,0.232-1.001,0.444-1.481,0.6c-0.474,0.186-0.933,0.31-1.373,0.34c-1.805,0.097-6.254,4.727-6.539,5.138
		c-0.256,0.441-0.526,0.907-0.796,1.372c-0.278,0.46-0.585,0.91-0.972,1.323c-0.364,0.45-0.799,0.873-1.38,1.246
		c-0.41-0.068-0.896,0.272-1.342,0.869c-0.43,0.612-0.854,1.437-1.247,2.221c-0.728,1.631-3.212,4.743-3.617,5.771
		c-0.312,1.067-0.492,2.171-0.741,3.256l-1.689,7.396l6.686-0.823c0.87-0.108,1.73-0.214,2.619-0.323
		c0.51-0.121,1.023-0.241,1.555-0.369c0.529-0.104,1.566-0.307,1.815-0.603c0.217-0.295,4.112-6.69,6.026-9.017
		c0,0,0.106-0.075,0.292-0.211c0.208-0.117,0.504-0.286,0.861-0.485c0.119-0.078,0.261-0.156,0.401-0.234l-0.515,2.49l-3.052,8.994
		c0,0-0.058,0.236-0.158,0.653c-0.105,0.415-0.249,1.011-0.372,1.733c-0.272,1.441-0.632,3.362-0.994,5.285
		c-0.72,3.839-1.438,7.679-1.438,7.679s-1.948,12.18-2.166,12.373c-0.024,0.165-0.049,0.329-0.073,0.494
		c-0.594,4.114-0.949,8.32-1.46,12.389c-0.367,4.19-0.888,8.24-2.049,11.918c-0.776,0.626-11.315,67.304-11.195,68.12
		c0,0-0.164,1.242-0.364,2.242H1.515c0,0-0.002,0.181-0.005,0.247c-0.321,2.134-0.721,5.047-0.7,5.976l0,0
		c-0.425,3.392-0.872,7.085-0.802,7.855c0.13,1.434,3.008,4.188,4.249,4.417c1.239,0.23,5.406-0.72,5.406-0.72
		s4.264-0.933,4.637-2.619c0.224-1.013,1.421-6.42,2.345-10.595c0.34-0.987,0.72-2.703,1.052-4.518
		c0.038-0.175,0.062-0.045,0.062-0.045h-0.011c0.186-1,0.354-2.193,0.489-2.869c0.706-2.305,1.934-8.425,8.792-46.289
		c1.18,1.104,2.361,2.152,3.559,3.287c1.253,1.42,2.533,2.887,3.957,4.375l0.265,0.266l0.139,0.156l0.249,0.287l0.444,0.503
		c-0.138-0.146-0.164-0.175,0.039,0.044l0.025,0.027c0.086,0.092,0.162,0.173,0.237,0.253c0.192,0.206,0.458,0.492,0.821,0.881
		c1.422,1.548,2.969,3.06,4.553,4.593c1.556,1.587,3.156,3.175,4.664,4.889c1.496,1.736,2.927,3.529,4.152,5.521
		c0.156,0.982,3.399,4.895,6.773,8.774c3.377,3.88,6.925,7.678,7.655,8.174l-0.439-2.508c4.972,5.086,6.131,8.467,10.912,12.467
		l-0.427-0.08c0.39,0.876,2.73-0.599,6.829,9.114l-0.093,0.086c0.252,0.239,0.437,0.067,0.659,0.807l-0.603-1.795
		c0.936,0.55,1.992,0.808,2.986,1.762c0.097,0.312-0.026,0.562-0.153,0.72c0,0,0.611,0.586,1.223,1.172
		c0.63,0.576,1.261,1.15,1.261,1.15l0.138,1.313c1.045,0.445,1.943-1.096,3.192,1.566c0.117-1.587,1.468,0.481,1.666-0.198
		c-0.004,0.2,0.07,0.58,0.11,0.902c1.285,1.058,3.993,1.491,3.24-0.336C94.3,173.859,93.533,171.783,93.413,170.713z
		 M45.884,102.145c-0.095-0.015-0.433-0.082-0.63-0.124c0.16-0.099,0.328-0.202,0.495-0.305L45.884,102.145z M38.541,86.177
		c-0.66,0.368-1.355,0.663-2.038,0.982c-1.384,0.622-2.695,1.276-4.128,1.86c-0.92,0.322-1.62,0.637-2.198,0.944
		c0.179-0.994,0.361-2.003,0.546-3.029c0.132-0.477,0.199-0.994,0.268-1.483c0.05-0.276,0.099-0.543,0.148-0.822l8.953-58.057
		c0.608-3.069,1.341-6.616,1.812-8.929c0.071-0.348,0.118-0.683,0.154-1.012c0.316-0.057,0.634-0.113,0.954-0.163
		c2.974-0.498,10.218-0.615,12.508-0.604c1.151,0.006,2.105,0.033,2.773,0.095c0.667,0.043,1.05,0.067,1.05,0.067
		s6.812,0.853,9.447,1.55c2.617,0.664,8.231,3.69,8.402,4.011c0.616,0.406,1.194,0.836,1.794,1.246
		c0.51,0.466,1.12,0.873,1.589,1.352c0.463,0.48,1.009,0.919,1.38,1.437l0.641,0.733c0.135,0.217,0.279,0.425,0.434,0.632
		c1.118,1.771,2.041,4.74,2.168,7.484c0.333,5.643-2.079,11.909-5.955,16.803c-1.156,0.661-8.744,11.68-11.938,14.569l0.038-0.195
		c0,0-6.034,5.4-8.44,6.804l0.057-0.191c-4.904,3.856-9.846,7.469-14.918,10.72c-1.278,0.777-2.548,1.591-3.844,2.311
		C40.028,85.401,39.176,85.842,38.541,86.177z"/>
	<path fill="#87C6BD" d="M84.202,170.028l-0.054-0.053C83.831,170.277,84.027,170.246,84.202,170.028z"/>
	<path fill="#87C6BD" d="M90.976,175.252c0.173,0.312,0.257,0.715,0.438,1.038c0.417,0.454,0.43,0.104,0.378-0.355
		C91.31,175.532,90.976,175.252,90.976,175.252z"/>
	<path fill="#87C6BD" d="M93.877,170.353l0.383-0.117C93.954,170.045,93.872,170.146,93.877,170.353z"/>
	<path fill="#87C6BD" d="M99.188,120.417C99.231,120.344,99.167,120.301,99.188,120.417L99.188,120.417z"/>
	<path fill="#87C6BD" d="M102.22,102.92"/>
	<path fill="#87C6BD" d="M150.196,79.336c-0.597-2.035-1.851-4.707-3.762-7.107c-1.884-2.423-4.43-4.387-6.542-5.516
		c-2.129-1.134-3.744-1.528-4.214-1.606c0,0,0.438,0.521,0.881,1.045c0.422,0.521,0.81,1.051,0.81,1.051
		c-3.524-1.376-5.96-1.916-8.229-2.326c-2.28-0.398-4.383-0.426-6.891,0.26l0.255-0.301c-0.249-0.07-0.441,0.192-0.869,0.486
		c-0.068-0.099-0.137-0.208-0.205-0.299c-0.208-0.288-0.39-0.541-0.539-0.747c-0.297-0.387-0.487-0.603-0.487-0.603
		c-0.24-0.163-0.595-0.398-0.751-0.474l-0.521-0.265c-0.348-0.17-0.711-0.336-1.054-0.479c-0.506-0.18-1.017-0.347-1.526-0.5
		l-5.327-1.619l-3.21,3.321c-2.887,2.986-4.562,5.714-6.203,8.478c0,0-1.642,1.613-3.171,3.28c-0.75,0.84-1.502,1.682-2.064,2.312
		c-0.544,0.642-0.906,1.067-0.906,1.067s-0.652,1.18-1.512,2.977c-0.896,1.789-1.988,4.199-3.016,6.634
		c-1.03,2.431-1.957,4.902-2.628,6.769c-0.641,1.879-1.067,3.133-1.067,3.133l0.651,1.825c-1.668,1.618-2.322,3.94-2.8,6.35
		c-0.508,2.403-0.821,4.891-1.982,7.059l1.002,0.277c-0.187,1.284-0.778,1.11-1.013,1.405c-0.45,3.053-0.592,6.282-0.448,9.605
		c0.144,3.315,0.689,6.839,1.947,10.434c1.239,3.568,3.429,7.313,6.616,10.132l1.193,1.04c0.413,0.317,0.85,0.592,1.278,0.883
		c0.863,0.568,1.715,1.152,2.65,1.556c0.93,0.421,1.812,0.912,2.797,1.227c0.982,0.318,1.987,0.642,2.923,0.822
		c0.699,0.476,2.229,0.656,3.721,0.72c1.472,0.018,2.886-0.061,3.5,0.179c17.877-1.125,29.538-21.788,32.467-27.525
		c10.706-25.522,9.041-36.401,8.838-40.964C150.967,82.877,150.828,81.393,150.196,79.336z M112.485,75.222L112.485,75.222
		C112.486,75.221,112.485,75.222,112.485,75.222z M112.502,75.225l-0.011-0.001l-0.003-0.001L112.502,75.225z M135.237,93.795
		c-0.179,0.732-4.197,12.455-4.197,12.455s-1.434,4.779-2.248,6.467c0,0-1.447,9.054-9.089,16.436
		c-7.643,7.384-14.86,5.897-15.37,5.396c-0.056-0.358-0.08-0.661-0.162-0.839c-0.073-0.178-0.562-0.579-0.714-0.619
		c-0.138-0.064-2.333,0.195-3.485-2.42c-1.152-2.615-1.463-4.852-1.463-4.852c0.171-16.648,4.306-24.651,4.306-24.651l5.731-12.35
		c0.6-1.001,0.878-2.501,1.896-2.936c1.037-0.396,0.035-2.198,0.157-2.538c-0.12-1.214,1.602-1.153,1.313-0.849
		c0.356-0.971-0.362-2.612,0.98-3.408c0.722,0.224,0.988-0.729,1.265-1.635c0.289-0.866,1.105-1.298,1.105-1.298
		c0.326-0.077,0.578-0.207,0.79-0.371c0.392,0.205,0.758,0.408,1.039,0.603c0.411,0.296,0.665,0.513,0.665,0.513
		s0.054,0.037,0.151,0.104c0.137,0.033,0.313,0.095,0.548,0.146c0.288-0.003,0.562,0.066,1.023-0.055
		c0.212-0.036,1.273-0.438,1.689-0.818c0.317-0.301,0.573-0.453,0.913-0.917c0.247,0.277,1.859,1.41,1.995,1.648
		c1.078,0.02,8.125,0.645,8.851,0.4C132.927,77.406,139.748,79.769,135.237,93.795z"/>
	<path fill="#87C6BD" d="M216.622,135.344"/>
	<path fill="#87C6BD" d="M203.635,123.365c0.062,0.137,0.121,0.283,0.166,0.501C203.777,123.575,203.714,123.441,203.635,123.365z"
		/>
	<path fill="#87C6BD" d="M189.033,131.523c-0.032-0.003-0.048-0.013-0.08-0.015C188.948,131.531,188.984,131.531,189.033,131.523z"
		/>
	<path fill="#87C6BD" d="M178.181,81.878l0.438,0.293C178.458,81.995,178.314,81.916,178.181,81.878z"/>
	<path fill="#87C6BD" d="M170.992,66.728c0.004-0.001,0.008-0.003,0.012-0.003C170.939,66.723,170.951,66.725,170.992,66.728z"/>
	<path fill="#87C6BD" d="M295.833,64.585C295.897,64.526,295.845,64.461,295.833,64.585L295.833,64.585z"/>
	<path fill="#87C6BD" d="M317.503,150.334c-0.017-0.062-0.037-0.124-0.063-0.19l-0.117,0.392
		C317.417,150.484,317.474,150.417,317.503,150.334z"/>
	<path fill="#87C6BD" d="M318.936,151.183c1.474-0.044,0.334-0.235-0.022-0.558l-0.028,0.312c-0.902-0.122-1.054-0.867-1.511-0.995
		c0.014,0.06,0.039,0.131,0.065,0.2l0.032-0.108c0.066,0.125,0.062,0.219,0.031,0.3c0.041,0.156,0.029,0.288-0.207,0.283
		l0.025-0.083c-0.326,0.171-1.343-0.461-1.343-0.461c-0.199,0.645-1.326,0.382-2.472-0.032c-1.149-0.427-2.332-1.09-2.74-1.049
		c-0.917-0.688-3.793-0.69-4.656-1.16c-1.05-0.318-1.14-0.473-1.285-0.705c-1.062-0.03-2.764-1.062-3.021,0.215
		c-1.438-0.559-1.44-0.688-1.429-0.436c-0.582-0.538-9.396-1.279-10.006-1.395c0,0-9.978-3.311-11.529-8.05
		c-2.442-7.459-0.709-14.215-0.709-14.215l1.945-11.621c0,0-0.397-0.006,0.111-0.691l0.645-1.056c0,0,2.078-8.444,2.722-8.972
		c0.135,0.045,0.474-0.795,0.474-0.795c0.396-0.289,11.791-35.421,11.803-35.528c-0.068,0.062,0.762-2.912,0.762-2.912l0.543-0.855
		c0,0,12.55-33.979,12.326-33.629c0.104-0.57,1.201-3.898,2.188-7l0.096,0.05c-0.033-0.024-0.062-0.036-0.094-0.057
		c0.795-2.5,1.516-4.853,1.581-5.491c0.146-1.431-2.153-4.674-3.325-5.137c-1.174-0.462-5.445-0.323-5.445-0.323
		s-4.363,0.104-5.053,1.688c-0.69,1.584-6.383,14.672-6.383,14.672l-6.271,16.763c0,0-4.926,13.438-5.192,13.618
		c-3.502,9.458-12.774,38.051-13.685,40.95l-0.08-0.142l-0.178,1.432c-0.098,0.037-1.308,3.975-2.113,5.853l-0.084-0.14
		c-6.233,21.061-7.344,43.205,11.656,54.152c0.139,0.187,6.717,3.309,17.418,3.309c1.422-0.092,2.461-0.207,2.734-0.351
		c0,0-0.374-0.312-0.747-0.621c-0.376-0.324-0.752-0.647-0.752-0.647c4.734-0.602,6.976,0.562,10.916-0.775l-0.198,0.289
		c0.305,0.122,0.479-0.526,1.414-0.838c0.94-0.315,2.598-0.382,6.082,0.938l0.021,0.125c0.224-0.052,0.182-0.288,0.687-0.029
		c0,0-0.312-0.144-0.621-0.305c-0.308-0.157-0.615-0.313-0.615-0.313c0.627-0.384,1.123-1.067,2.004-1.322
		c0.213,0.104,0.32,0.348,0.371,0.544l2.168-0.606l0.834,0.68c0.603-0.58-0.082-2.134,1.938-1.626
		c-0.946-0.988,0.742-0.927,0.377-1.46c0.125,0.119,0.384,0.28,0.599,0.438c1.049-0.41,2.979-1.26,3.287-1.973
		c0,0-1.226-0.329-2.578-0.791C321.059,152.275,319.589,151.673,318.936,151.183z"/>
	<path fill="#87C6BD" d="M315.792,158.077l-0.049,0.014C315.817,158.52,315.863,158.345,315.792,158.077z"/>
	<path fill="#87C6BD" d="M304.826,147.127c0.246,0.008,0.457-0.039,0.603-0.189C304.74,146.851,304.716,146.96,304.826,147.127z"/>
	<path fill="#87C6BD" d="M321.819,156.005c0.411-0.069,0.192-0.282-0.11-0.505c-0.397,0.149-0.672,0.253-0.672,0.253
		C321.283,155.798,321.562,155.965,321.819,156.005z"/>
	<path fill="#87C6BD" d="M318.914,150.625l0.037-0.376C318.755,150.389,318.792,150.513,318.914,150.625z"/>
	<path fill="#87C6BD" d="M262.35,77.042c0.185-1.033,3.623-11.067,3.771-12.499c0.146-1.433-2.154-4.674-3.326-5.137
		c-1.174-0.464-5.444-0.323-5.444-0.323s-4.364,0.104-5.054,1.688c-0.69,1.584-6.383,14.672-6.383,14.672l-6.271,16.763
		c0,0-2.442,6.662-3.98,10.667c-0.38,0.732-0.843,1.587-1.443,2.666c0,0,0.252,2.014-0.507,2.069
		c-0.698,1.596-1.466,3.204-2.337,4.585c-0.879,1.374-3.305,7.691-3.305,7.691c-0.49,0.854-1.266,2.379-1.266,2.379l-8.421,15.543
		c-0.398,1.295-3.784,4.614-6.941,4.516c0,0-3.123-0.192-4.025-3.255c-0.902-3.062-1.604-4.943-1.604-4.943
		c-1.497-1.123-0.357-1.979-1.001-2.938c0,0,0.073-1.39-0.263-2.067c-0.195-0.557-0.523-1.88-0.855-2.688
		c-0.325-0.82-0.534-1.879-0.434-3.092c0.139-0.047-0.125-0.592-0.021-1.707c0,0-0.12-1.373-0.116-1.338
		c0.142-1.523-0.799-2.7-0.093-3.183c0,0,0.08-2.008-0.125-4.563c-0.085-1.322-0.263-2.479-0.358-3.422
		c-0.052-0.461-0.097-0.848-0.127-1.115c-0.031-0.271-0.049-0.423-0.054-0.415c0,0-3.492-9.349-3.713-9.462
		c-0.803-1.338-6.796-2.294-8.041-2.01c-1.251,0.322-2.804,1.278-4.145,2.316c-2.619,2.78-4.785,6.881-6.772,10.622
		c-1.997,3.848-3.893,7.707-6.135,12.185c-0.573,0.493-1.124,1.102-1.65,1.788c-0.367,0.4-0.645,0.765-0.92,1.206
		c-0.059,0.094-0.103,0.201-0.159,0.299c1.255-5.693,2.003-12.205,3.605-18.015l-0.495,0.27c0.495-2.033,0.495-4.69,1.479-6.117
		c0.985-1.429-0.397-3.633-0.347-4.253c-0.394-1.855,1.353-3.146,1.137-2.42c0.149-1.887-1.029-3.896,0.073-6.359
		c0.334-0.137,0.519-0.553,0.617-1.124c0.047-0.285,0.074-0.607,0.086-0.952c0.012-0.209,0-0.297-0.019-0.368l-0.051-0.27
		l-0.092-0.426c-0.014-0.136,0.044-0.249,0.048-0.386c0.019-0.096,0.008-0.134,0.06-0.299c0.063-0.19,0.124-0.372,0.181-0.546
		c0.11-0.332,0.209-0.607,0.314-0.829c0.21-0.441,0.444-0.668,0.755-0.568l-0.113-0.078c2.314-3.073,1.389-6.626,3.305-10.076
		c0,0,0.096,0.1,0.17,0.252c0,0-0.182-0.554-0.455-1.385c-0.312-0.903-0.729-2.108-1.145-3.313l-0.221-0.688l-0.177-0.549
		c-0.048-0.154-0.108-0.308-0.175-0.45c-0.08-0.197-0.273-0.557-0.46-0.782c-0.117-0.155-0.396-0.448-0.643-0.613
		c-0.269-0.185-0.519-0.315-0.884-0.414c-0.352-0.096-0.732-0.122-1.07-0.083c-0.238,0.033-0.396,0.083-0.591,0.149
		c-0.17,0.062-0.396,0.174-0.487,0.236l-0.213,0.162c-0.13,0.106-0.29,0.256-0.318,0.312c-0.257,0.336-0.314,0.539-0.38,0.734
		c-0.17,0.678-0.134,1.137-0.122,1.558c-0.413,0.004-0.858,0.002-1.372-0.013c-0.482-0.029-1.647-0.094-1.839-0.11
		c-0.062,0.012-0.121,0.028-0.184,0.05c-0.271,0.119-0.583,0.346-0.905,0.578c-1.359,1.042-2.718,2.084-2.718,2.084
		c-0.32,1.615-0.708,3.301-1.126,4.928c-0.209,0.812-0.426,1.616-0.646,2.363l-0.314,1.038l-0.129,0.404l-0.021,0.07
		c-0.01,0.017-0.022,0.021,0.027,0.188l0.102,0.375c-0.043,0.092-0.086,0.188-0.311,0.204c-0.357,0.879-0.676,1.74-1.08,2.624
		l-0.114,0.98l-0.058,0.487l-0.021,0.27l-0.091,1.042l-0.197,2.101c0,0-1.031,3.198-2.062,6.396
		c-1.068,3.218-2.136,6.437-2.136,6.437s-1.487,8.122-2.976,16.245c-0.721,4.104-1.441,8.209-1.983,11.29
		c-0.509,3.111-0.85,5.187-0.85,5.187l0.781,2.582c-1.587,3.113-2.121,6.894-2.394,11.033c-0.065,1.044-0.117,2.111-0.144,3.248
		c-0.021,1.161-0.049,2.314,0.046,3.866c0.062,0.795,0.117,1.671,0.464,3.068c0.126,0.435,0.218,0.767,0.415,1.27
		c0.12,0.294,0.25,0.581,0.389,0.864l0.219,0.42c0.063,0.123,0.234,0.392,0.356,0.577c0.272,0.405,0.573,0.799,0.895,1.162
		c0.354,0.405,0.992,0.979,1.559,1.375c0.303,0.213,0.583,0.396,0.926,0.585c0.376,0.197,0.775,0.376,1.185,0.525
		c0.409,0.152,1.721,0.692,1.721,0.692c0.663,0.046,1.553,0.111,1.553,0.111s1.943-0.409,2.324-0.505
		c1.909-0.56,1.904-0.725,2.525-1.004c0.59-0.321,0.782-0.467,1.132-0.694l0.461-0.323l0.331-0.249c0.931-0.717,1.432-1.179,2-1.661
		c0,0,1.584-2.576,1.829-2.759c1.574-2.231,2.825-4.312,4.047-6.407c1.215-2.09,2.353-4.163,3.468-6.23
		c2.168-4.105,4.332-8.202,6.465-12.244c0.252-0.527,0.502-1.052,0.749-1.569c0.214-0.421,0.447-0.83,0.678-1.175
		c0.467-0.686,0.921-1.15,1.193-0.737c-0.042,0.429,0.432,1.681,0.59,1.923c0.163,0.261,0.285,1.623,0.38,1.943
		c0.146,0.42,0.273,0.869,0.388,1.336c0.217,0.933,0.437,1.973,0.594,3.031c0.399,2.153,0.696,4.465,1.341,6.601
		c0,0,0.357,1.296,0.716,2.072c0.331,0.76,0.679,1.523,1.135,2.321l0.651,1.172c0.238,0.405,0.584,0.896,0.883,1.332l0.954,1.32
		c0.385,0.451,0.782,0.896,1.187,1.329c1.599,1.757,3.547,3.118,5.625,4.147c1.065,0.443,2.16,0.866,3.281,1.116
		c1.14,0.174,2.277,0.439,3.433,0.379c1.156-0.011,2.307-0.025,3.439-0.283c1.135-0.217,2.282-0.447,3.292-0.857
		c0.52-0.188,1.037-0.387,1.547-0.594l0.763-0.318c0.245-0.105,0.383-0.199,0.58-0.303l2.184-1.218
		c2.907-1.826,5.503-4.021,7.47-6.264c4.054-4.48,6.906-9.11,9.596-13.751c2.676-4.649,5.02-9.349,7.408-14.108
		c2.416-3.769,4.023-8.202,5.424-12.829C254.375,98.876,262.53,76.758,262.35,77.042z M179.84,69.473
		c0.005,0.001,0.003,0.001,0.01,0.003C179.867,69.49,179.858,69.484,179.84,69.473z M161.347,153.941L161.347,153.941
		C161.347,153.931,161.347,153.927,161.347,153.941z"/>
	<path fill="#87C6BD" d="M395.91,69.473c0.006,0.001,0.004,0.001,0.012,0.003C395.937,69.49,395.927,69.484,395.91,69.473z
		 M377.144,153.941L377.144,153.941C377.166,153.932,377.175,153.927,377.144,153.941z"/>
	<path fill="#87C6BD" d="M353.125,118.75c-0.012,0.062-0.039,0.119-0.043,0.181C353.142,118.867,353.144,118.808,353.125,118.75z"/>
	<path fill="#87C6BD" d="M367.554,84.205c0.021-1.187-0.225-2.526-0.408-3.623c-0.175-0.822-0.35-1.647-0.525-2.479
		c-0.138-0.797-0.389-1.641-0.584-2.479c-0.32-3.296-2.016-6.792-5.092-10.149c-0.806-0.834-1.578-1.658-2.585-2.432
		c-0.487-0.388-0.94-0.785-1.468-1.147l-1.637-1.058c-2.239-1.335-4.799-2.447-7.385-3.135c-0.447-0.355-2.168-0.717-4.397-0.682
		c-2.235,0.027-4.796,0.567-7.075,1.368c-4.512,1.653-7.743,4.209-8.173,4.75l2.122,0.168c-2.201,1.653-3.821,2.651-5.338,3.681
		c-1.493,1.031-2.84,2.108-4.059,3.968c0,0-0.085,0.383-0.648,1.269c-0.565,0.911-4.881,5.159-5.393,5.956
		c-0.232,0.072-3.332,5.953-3.332,5.953s-2.912,7.955-4.035,10.702c-0.99,2.411-1.871,4.881-2.416,6.811
		c-0.282,0.958-0.513,1.759-0.641,2.343c-0.139,0.575-0.218,0.903-0.218,0.903s0.192,0.445,0.387,0.892
		c0.206,0.444,0.414,0.89,0.414,0.89c-1.501,1.822-1.86,4.371-1.878,7.046c0.016,2.725,0.359,5.512,0.219,8.502l1.043-0.106
		c0.478,1.555-0.156,1.627-0.219,2.079c0.928,2.81,2.514,5.729,4.855,8.105c2.375,2.366,5.173,3.947,8.002,4.978
		c2.709,0.923,5.645,1.192,8.371,0.87c0.638-0.094,1.244-0.221,1.861-0.342l0.914-0.192l0.83-0.257l1.645-0.531l1.485-0.618
		c3.886-1.699,6.868-3.715,9.714-5.549c1.258-0.138,3.27-2.535,4.312-2.584c1.522-3.29,3.755-5.84,5.866-8.316l0.015,0.168
		l0.774-1.327c0.107,0.001,0.211,0.068,0.246,0.155c0.309-1.914,2.59-3.555,4.063-5.119l0.026,0.164
		c3.44-5.112,5.923-10.518,7.889-16.436c0.482-1.494,0.934-3.031,1.339-4.644c0.199-0.813,0.37-1.677,0.556-2.514
		c0.14-0.931,0.316-1.773,0.41-2.782C367.503,86.419,367.601,85.439,367.554,84.205z M351.996,85.615c0,0-1.389,8.451-8.104,21.072
		c-6.299,11.836-18.846,15.304-19.985,15.981c-1.143,0.251-2.474-1.077-2.72-1.254l-0.221-0.106
		c-0.051-0.062-0.092-0.133-0.12-0.211c-0.046-0.174-1.286-0.324-1.332-0.344c-1.765-1.022-2.739-5.021-2.663-5.307
		c0.295-1.148,1.408-7.561,1.529-7.862c0.137-0.301,0.729-4.398,1.468-6.332c0.756-1.923,3.722-9.776,3.86-10.063
		c1.285-7.936,12.535-17.834,12.752-18.597l0.844-0.438c0.488,0.11,0.445,0.446,0.504,0.558c0.294-0.41,0.798-0.607,1.34-0.755
		c0.547-0.115,1.162-0.825,0.646-1.378c-0.513-0.555-1.066-1.092-1.066-1.092c1.211,0.188,3.255,0.332,3.438,0.538
		c0.174,0.207,2.188,0.956,2.188,0.956c0.726,0.558,3.765,3.886,3.97,4.021c0.194,0.182,0.326,0.396,0.449,0.591
		c0.123,0.191,0.223,0.416,0.297,0.781c0.071,0.371,0.436,0.733,0.485,1.382c0,0,0.999,1.851,1.167,2.583
		C351.039,81.172,352.113,82.836,351.996,85.615z"/>
	<path fill="#87C6BD" d="M478.418,77.042c0.186-1.032,3.623-11.066,3.771-12.498s-2.153-4.675-3.326-5.138
		c-1.173-0.464-5.444-0.323-5.444-0.323s-4.363,0.104-5.053,1.688c-0.69,1.584-6.383,14.673-6.383,14.673l-6.271,16.763
		c0,0-2.441,6.662-3.979,10.667c-0.381,0.732-0.844,1.587-1.442,2.666c0,0,0.252,2.014-0.508,2.069
		c-0.697,1.596-1.466,3.204-2.337,4.585c-0.88,1.374-3.306,7.691-3.306,7.691c-0.49,0.854-1.268,2.379-1.268,2.379l-8.42,15.543
		c-0.397,1.295-3.785,4.614-6.94,4.516c0,0-3.123-0.192-4.025-3.255c-0.901-3.062-1.604-4.943-1.604-4.943
		c-1.496-1.123-0.356-1.979-1-2.938c0,0,0.072-1.39-0.264-2.067c-0.195-0.557-0.523-1.88-0.854-2.688
		c-0.325-0.82-0.534-1.879-0.435-3.092c0.14-0.047-0.125-0.592-0.021-1.707c0,0-0.119-1.373-0.115-1.338
		c0.143-1.523-0.799-2.7-0.093-3.182c0,0,0.079-2.009-0.126-4.564c-0.085-1.322-0.264-2.478-0.357-3.422
		c-0.053-0.461-0.098-0.847-0.127-1.115c-0.031-0.271-0.05-0.423-0.055-0.415c0,0-3.492-9.349-3.713-9.462
		c-0.803-1.338-6.796-2.294-8.041-2.01c-1.252,0.322-2.805,1.279-4.145,2.316c-2.619,2.78-4.785,6.881-6.772,10.622
		c-1.997,3.848-3.895,7.707-6.135,12.185c-0.573,0.493-1.125,1.102-1.649,1.788c-0.367,0.4-0.646,0.765-0.92,1.206
		c-0.06,0.094-0.104,0.201-0.159,0.299c1.256-5.693,2.003-12.205,3.605-18.015l-0.495,0.27c0.495-2.033,0.495-4.69,1.479-6.117
		c0.984-1.429-0.397-3.633-0.348-4.253c-0.395-1.854,1.352-3.146,1.137-2.42c0.149-1.887-1.029-3.896,0.073-6.359
		c0.334-0.137,0.519-0.553,0.616-1.123c0.047-0.284,0.074-0.607,0.087-0.952c0.012-0.209,0-0.298-0.019-0.369l-0.053-0.269
		l-0.093-0.426c-0.015-0.137,0.045-0.25,0.049-0.387c0.021-0.095,0.009-0.133,0.06-0.299c0.063-0.189,0.125-0.371,0.182-0.546
		c0.109-0.332,0.21-0.606,0.314-0.828c0.211-0.44,0.443-0.667,0.756-0.568l-0.113-0.077c2.313-3.074,1.389-6.627,3.305-10.076
		c0,0,0.097,0.1,0.171,0.252c0,0-0.183-0.554-0.455-1.385c-0.312-0.903-0.728-2.108-1.144-3.312l-0.223-0.688l-0.176-0.549
		c-0.05-0.154-0.108-0.307-0.176-0.45c-0.078-0.197-0.271-0.557-0.46-0.781c-0.116-0.154-0.396-0.447-0.644-0.612
		c-0.27-0.187-0.52-0.316-0.885-0.416c-0.351-0.096-0.731-0.121-1.069-0.082c-0.238,0.032-0.396,0.082-0.593,0.149
		c-0.17,0.062-0.396,0.174-0.485,0.236l-0.213,0.161c-0.132,0.105-0.291,0.257-0.318,0.312c-0.258,0.336-0.313,0.539-0.38,0.734
		c-0.17,0.678-0.134,1.137-0.122,1.558c-0.412,0.005-0.856,0.002-1.371-0.013c-0.481-0.029-1.647-0.095-1.84-0.11
		c-0.062,0.012-0.121,0.028-0.185,0.051c-0.271,0.118-0.584,0.346-0.904,0.577c-1.359,1.043-2.719,2.084-2.719,2.084
		c-0.319,1.615-0.709,3.302-1.127,4.929c-0.209,0.812-0.426,1.617-0.646,2.362l-0.313,1.039l-0.129,0.404l-0.021,0.07
		c-0.01,0.016-0.023,0.021,0.027,0.188l0.102,0.374c-0.043,0.093-0.086,0.188-0.311,0.204c-0.357,0.879-0.676,1.739-1.08,2.623
		l-0.114,0.98l-0.058,0.487l-0.021,0.27l-0.091,1.042l-0.196,2.102c0,0-1.031,3.197-2.062,6.396
		c-1.067,3.218-2.135,6.437-2.135,6.437s-1.488,8.122-2.976,16.245c-0.722,4.105-1.442,8.209-1.983,11.29
		c-0.51,3.111-0.85,5.188-0.85,5.188l0.781,2.581c-1.588,3.113-2.121,6.894-2.395,11.033c-0.064,1.044-0.117,2.111-0.144,3.248
		c-0.021,1.161-0.05,2.314,0.045,3.866c0.062,0.795,0.116,1.671,0.465,3.068c0.127,0.435,0.22,0.767,0.415,1.27
		c0.12,0.294,0.249,0.581,0.389,0.864l0.219,0.42c0.063,0.123,0.233,0.392,0.355,0.577c0.271,0.406,0.573,0.799,0.896,1.162
		c0.354,0.405,0.99,0.979,1.559,1.375c0.303,0.213,0.584,0.396,0.926,0.585c0.377,0.197,0.775,0.376,1.186,0.525
		c0.408,0.152,1.722,0.692,1.722,0.692c0.662,0.046,1.554,0.111,1.554,0.111s1.941-0.409,2.323-0.504
		c1.908-0.561,1.903-0.726,2.524-1.005c0.59-0.321,0.781-0.467,1.132-0.694l0.462-0.323l0.331-0.249
		c0.931-0.717,1.432-1.179,2-1.661c0,0,1.585-2.576,1.829-2.759c1.574-2.231,2.824-4.312,4.047-6.407
		c1.216-2.09,2.354-4.163,3.468-6.23c2.168-4.105,4.332-8.202,6.465-12.244c0.252-0.527,0.502-1.051,0.749-1.569
		c0.214-0.421,0.446-0.83,0.679-1.175c0.467-0.686,0.922-1.15,1.192-0.737c-0.042,0.43,0.433,1.682,0.591,1.923
		c0.162,0.261,0.284,1.623,0.379,1.943c0.147,0.42,0.274,0.869,0.389,1.336c0.218,0.933,0.438,1.973,0.595,3.031
		c0.399,2.154,0.696,4.465,1.342,6.601c0,0,0.356,1.296,0.716,2.072c0.332,0.76,0.68,1.524,1.135,2.321l0.651,1.172
		c0.238,0.406,0.585,0.896,0.884,1.332l0.953,1.32c0.387,0.451,0.782,0.896,1.188,1.329c1.599,1.758,3.547,3.118,5.625,4.147
		c1.066,0.444,2.16,0.866,3.281,1.116c1.141,0.174,2.276,0.439,3.434,0.379c1.156-0.01,2.307-0.025,3.438-0.283
		c1.136-0.217,2.283-0.447,3.293-0.857c0.52-0.188,1.037-0.387,1.547-0.594l0.763-0.317c0.245-0.106,0.384-0.2,0.58-0.304
		l2.185-1.218c2.906-1.826,5.504-4.021,7.471-6.264c4.054-4.48,6.906-9.11,9.596-13.751c2.677-4.649,5.02-9.349,7.408-14.108
		c2.416-3.769,4.022-8.202,5.424-12.829C470.445,98.876,478.599,76.758,478.418,77.042z M395.91,69.473
		c0.006,0.002,0.004,0.001,0.012,0.003C395.936,69.49,395.927,69.484,395.91,69.473z M377.417,153.941L377.417,153.941
		C377.417,153.931,377.417,153.927,377.417,153.941z"/>
</g>
<path fill="#FB544D" d="M102.22,102.92"/>
</svg>
