<?xml version="1.0" standalone="no"?>
<!DOCTYPE svg PUBLIC "-//W3C//DTD SVG 1.1//EN" "http://www.w3.org/Graphics/SVG/1.1/DTD/svg11.dtd" >
<svg>
<defs>
<font id="FuturaLT" horiz-adv-x="1183" >
  <font-face 
    font-family="FuturaLT"
    font-weight="400"
    font-stretch="normal"
    units-per-em="2048"
    panose-1="2 0 5 4 2 0 0 2 0 3"
    ascent="1638"
    descent="-410"
    x-height="958"
    cap-height="1544"
    bbox="-334 -549 2279 2089"
    underline-thickness="153"
    underline-position="-232"
    unicode-range="U+0020-2122"
  />
<missing-glyph horiz-adv-x="1024" 
d="M102 1049h820v-1049h-820v1049zM905 16v1016h-786v-1016h786z" />
    <glyph glyph-name=".notdef" horiz-adv-x="1024" 
d="M102 1049h820v-1049h-820v1049zM905 16v1016h-786v-1016h786z" />
    <glyph glyph-name=".null" horiz-adv-x="0" 
 />
    <glyph glyph-name="nonmarkingreturn" horiz-adv-x="591" 
 />
    <glyph glyph-name="space" unicode=" " horiz-adv-x="591" 
 />
    <glyph glyph-name="exclam" unicode="!" horiz-adv-x="657" 
d="M330 205q49 0 84 -36t35 -84t-35 -83t-84 -35t-84 35t-35 83t35 84t84 36zM238 1544h184v-1188h-184v1188z" />
    <glyph glyph-name="quotedbl" unicode="&#x22;" horiz-adv-x="899" 
d="M385 1544l-37 -672h-127l-37 672h201zM715 1544l-37 -672h-127l-37 672h201z" />
    <glyph glyph-name="numbersign" unicode="#" 
d="M1133 1073v-164h-220l-55 -315h207v-164h-240l-77 -430h-156l76 430h-252l-82 -430h-154l76 430h-205v164h236l55 315h-215v164h244l73 397h158l-74 -397h254l72 397h162l-72 -397h189zM446 594h252l56 315h-252z" />
    <glyph glyph-name="dollar" unicode="$" 
d="M840.5 597.5q-56.5 63.5 -158.5 117.5v-555q91 19 153 99.5t62 177.5t-56.5 160.5zM580 1761h102v-184q236 -20 350 -238l-162 -92q-33 61 -77.5 96t-110.5 56v-481q186 -84 292.5 -192t106.5 -278t-116.5 -312.5t-282.5 -168.5v-194h-102v194q-180 4 -313.5 127
t-164.5 303l185 39q27 -131 92 -201.5t201 -87.5v615l-74 37q-147 75 -197.5 130.5t-74 112t-23.5 172t108.5 233.5t260.5 130v184zM389 1184q0 -86 56.5 -136.5t134.5 -80.5v432q-80 -12 -135.5 -70.5t-55.5 -144.5z" />
    <glyph glyph-name="percent" unicode="%" horiz-adv-x="1449" 
d="M395.5 1577q73.5 0 139 -27.5t114.5 -75t78 -112t29 -138t-30 -137t-79 -110.5t-114.5 -75t-137 -28t-137 28t-115 75t-79 110.5t-29.5 137t28.5 138t77.5 112t115 75t139.5 27.5zM395 1454q-47 0 -90 -18.5t-75.5 -49t-52 -72.5t-19.5 -89t19.5 -88t52 -72t75.5 -49.5
t90 -18.5t90 18.5t76 49.5t52.5 72t19.5 88t-19.5 89t-52.5 72.5t-76 49t-90 18.5zM1223 1524l-901 -1557l-95 51l903 1559zM1056.5 670q73.5 0 139.5 -28t115 -75t77.5 -111.5t28.5 -138t-29.5 -137t-78.5 -110.5t-115 -75t-137.5 -28t-137 28t-114.5 75t-79 110.5t-30 137
t29 138t78 111.5t114.5 75t139 28zM1057 547q-47 0 -90 -18.5t-76 -49t-52.5 -72.5t-19.5 -89.5t19.5 -88.5t52.5 -71.5t76 -49t90 -18.5t90 18.5t75.5 49t52 71.5t19.5 88.5t-19.5 89.5t-52 72.5t-75.5 49t-90 18.5z" />
    <glyph glyph-name="ampersand" unicode="&#x26;" horiz-adv-x="1417" 
d="M376 226q87 -87 210 -87t215 84t129 121l-342 418l-19 -12q-41 -29 -89 -62t-119.5 -101t-71.5 -171t87 -190zM661 1425q-74 0 -125 -45t-51 -111t29 -111.5t64 -88.5l51 -65l24 16q29 23 62 47.5t78 69.5t45 123t-51.5 121.5t-125.5 43.5zM475 901q-170 180 -170 329
q0 163 99.5 255t252.5 92t257 -89t104 -242t-116 -247t-165 -129l322 -389l180 209l123 -127l-188 -221l276 -342h-238l-168 209q-88 -104 -207 -173t-235 -69q-217 0 -355 129.5t-138 323.5q0 193 107.5 282t162.5 129z" />
    <glyph glyph-name="quotesingle" unicode="'" horiz-adv-x="567" 
d="M385 1544l-37 -672h-127l-37 672h201z" />
    <glyph glyph-name="parenleft" unicode="(" horiz-adv-x="598" 
d="M305 781.5q0 -396.5 44.5 -641t131.5 -423.5l-151 -112q-160 312 -186.5 607.5t-26.5 419.5q0 269 54.5 547t158.5 478l151 -113q-176 -366 -176 -762.5z" />
    <glyph glyph-name="parenright" unicode=")" horiz-adv-x="598" 
d="M293 781.5q0 396.5 -176 762.5l151 113q160 -312 186.5 -606.5t26.5 -418.5q0 -265 -53 -544.5t-160 -482.5l-151 112q86 176 131 422t45 642.5z" />
    <glyph glyph-name="asterisk" unicode="*" horiz-adv-x="884" 
d="M518 1544v-194l166 98l72 -121l-174 -102l174 -103l-72 -118l-166 102v-197h-141v199l-178 -100l-70 116l174 101l-172 102l64 117l182 -101v201h141z" />
    <glyph glyph-name="plus" unicode="+" 
d="M680 1049v-437h436v-176h-436v-436h-176v436h-436v176h436v437h176z" />
    <glyph glyph-name="comma" unicode="," horiz-adv-x="591" 
d="M496 180l-273 -547l-112 48l225 563z" />
    <glyph glyph-name="hyphenminus" unicode="-" horiz-adv-x="679" 
d="M565 733v-153h-448v153h448z" />
    <glyph glyph-name="period" unicode="." horiz-adv-x="591" 
d="M297 205q49 0 84 -36t35 -84t-35 -83t-84 -35t-84 35t-35 83t35 84t84 36z" />
    <glyph glyph-name="slash" unicode="/" horiz-adv-x="1128" 
d="M1065 1712l-854 -1970l-145 65l852 1971z" />
    <glyph glyph-name="zero" unicode="0" 
d="M592 -33q-98 0 -177 38t-139.5 100.5t-102.5 145.5t-68.5 172t-39 179t-12.5 170t12.5 170t39 179t68.5 172t101.5 145.5t138.5 100.5t179 38t179 -38t163.5 -127t140 -275t55.5 -365t-38.5 -308.5t-80.5 -212.5t-102.5 -145.5t-139.5 -100.5t-177 -38zM591.5 1413
q-104.5 0 -172 -69.5t-124.5 -209t-57 -355.5q0 -215 83.5 -427.5t241.5 -212.5t236.5 106.5t112.5 253.5t34 251t-16.5 213.5t-57.5 210t-108.5 170t-172 69.5z" />
    <glyph glyph-name="one" unicode="1" 
d="M705 1544v-1544h-185v1368h-268l106 176h347z" />
    <glyph glyph-name="two" unicode="2" 
d="M1090 176v-176h-998l676 829q137 159 137 279t-91 206.5t-210 86.5t-205 -82t-94 -201h-192q38 326 211.5 392.5t274.5 66.5q201 0 346 -132t145 -320q0 -187 -115 -328l-508 -621h623z" />
    <glyph glyph-name="three" unicode="3" 
d="M1051 1161q0 -237 -197 -348q115 -53 167 -155.5t52 -219.5q0 -220 -140.5 -345.5t-340.5 -125.5q-201 0 -338 115t-145 299h186q11 -109 98 -177.5t207 -68.5t204.5 86.5t84.5 224.5t-90.5 220.5t-235.5 70.5v160q214 0 258.5 88.5t44.5 152.5q0 121 -76 196t-186 75
t-178 -60.5t-84 -160.5h-190q29 193 144.5 291t306.5 98t319.5 -114t128.5 -302z" />
    <glyph glyph-name="four" unicode="4" 
d="M1137 393v-168h-176v-225h-185v225h-762l947 1385v-1217h176zM776 1030h-4l-434 -637h438v637z" />
    <glyph glyph-name="five" unicode="5" 
d="M940 122.5q-164 -155.5 -399 -155.5q-234 0 -340.5 103.5t-139.5 167.5l144 135q36 -97 136.5 -163.5t192.5 -66.5q171 0 278.5 112t107.5 263t-110 261t-259 110q-82 0 -160 -36t-129 -101h-37l238 792h618v-176h-485l-96 -317l108 6q219 0 357.5 -161t138.5 -389
q0 -229 -164 -384.5z" />
    <glyph glyph-name="six" unicode="6" 
d="M670 958q83 0 165.5 -40.5t176.5 -147t94 -307.5t-150 -348.5t-356 -147.5q-205 0 -361.5 145.5t-156.5 348.5q0 117 50 216t118 191l526 709l139 -94l-411 -557l4 -4q79 36 162 36zM823 231.5q99 92.5 99 227.5t-100.5 231t-227.5 96q-126 0 -227 -99t-101 -226
t97.5 -224.5t228.5 -97.5q132 0 231 92.5z" />
    <glyph glyph-name="seven" unicode="7" 
d="M96 1368v176h1112l-962 -1577l-150 92l799 1309h-799z" />
    <glyph glyph-name="eight" unicode="8" 
d="M383.5 636.5q-90.5 -84.5 -90.5 -202.5q0 -119 92 -207t207 -88t207 88t92 207t-90.5 203t-208.5 84t-208.5 -84.5zM831 801q244 -83 244 -395q0 -86 -39 -170t-104.5 -144.5t-153.5 -92.5t-186 -32t-186.5 32t-154 92.5t-104 145t-38.5 169.5q0 309 243 395
q-96 53 -149 142t-53 193t34.5 183.5t94 136.5t140.5 89t220.5 32t267 -122t127.5 -308q0 -115 -53 -204t-150 -142zM330 1154q0 -99 82.5 -184t179.5 -85t179.5 84.5t82.5 184.5t-77.5 179.5t-185.5 79.5t-184.5 -80t-76.5 -179z" />
    <glyph glyph-name="nine" unicode="9" 
d="M550 594q-91 0 -173 40t-176.5 142.5t-94.5 303.5q0 202 151 349.5t355 147.5q205 0 361.5 -145.5t156.5 -348.5q0 -117 -50 -216t-117 -191l-527 -709l-139 96l412 555l-4 5q-64 -29 -155 -29zM854 854q92 96 92 224t-95 227.5t-227 99.5q-133 0 -233 -96t-100 -229
q0 -134 100.5 -228t235.5 -94t227 96z" />
    <glyph glyph-name="colon" unicode=":" horiz-adv-x="591" 
d="M297 205q49 0 84 -36t35 -84t-35 -83t-84 -35t-84 35t-35 83t35 84t84 36zM297 987q49 0 84 -36t35 -84t-35 -82.5t-84 -34.5t-84 34.5t-35 82.5t35 84t84 36z" />
    <glyph glyph-name="semicolon" unicode=";" horiz-adv-x="591" 
d="M479 180l-272 -547l-113 48l225 563zM393 987q49 0 84 -36t35 -84t-35 -82.5t-84 -34.5t-84 34.5t-35 82.5t35 84t84 36z" />
    <glyph glyph-name="less" unicode="&#x3c;" 
d="M1116 827l-786 -303l786 -303v-192l-1048 424v143l1048 424v-193z" />
    <glyph glyph-name="equal" unicode="=" 
d="M1116 788v-176h-1048v176h1048zM1116 436v-176h-1048v176h1048z" />
    <glyph glyph-name="greater" unicode="&#x3e;" 
d="M68 1020l1048 -424v-143l-1048 -424v192l786 303l-786 303v193z" />
    <glyph glyph-name="question" unicode="?" horiz-adv-x="927" 
d="M289 1238q0 -26 12 -77h-192l-5 68q-8 146 104.5 247t266.5 101t259.5 -104.5t105.5 -258.5t-111 -253q-51 -45 -120 -70t-129 -43t-107 -51t-47 -97t41 -107.5t105 -43.5t104 46t38 112h187q4 -134 -97.5 -232t-235.5 -98t-231.5 94t-97.5 234q0 184 117.5 239t199 84
t139.5 67.5t58 124.5q0 87 -53 135t-129 48t-129 -51.5t-53 -113.5zM469 205q49 0 84 -36t35 -84t-35 -83t-84 -35t-84 35t-35 83t35 84t84 36z" />
    <glyph glyph-name="at" unicode="@" horiz-adv-x="1638" 
d="M815 1022q-113 0 -188.5 -96t-75.5 -203t56.5 -177.5t136.5 -70.5q140 0 206.5 81.5t80.5 206.5q15 124 -44 191.5t-172 67.5zM1137 513q0 -52 45 -52q73 0 147 124t74 261q0 263 -157.5 415t-404.5 152t-425 -186.5t-178 -454.5q0 -141 52 -259t140 -203t206 -132
t249 -47q261 0 381 98l153 -123q-131 -69 -253 -104t-293 -35t-315 60.5t-251.5 168t-170 255t-62.5 320.5t60.5 320.5t167 255t248.5 169t292 61.5q298 0 495 -178q230 -203 230 -472t-127 -433q-74 -98 -158 -140.5t-142 -39.5t-87 36t-39 92q-127 -127 -271 -127
t-248 112.5t-104 285.5t116.5 321t289.5 148t284 -146l29 127h145l-102 -526q-16 -72 -16 -124z" />
    <glyph glyph-name="A" unicode="A" horiz-adv-x="1439" 
d="M367 387l-177 -387h-206l737 1610l737 -1610h-207l-176 387h-708zM721 1188l-275 -625h549z" />
    <glyph glyph-name="B" unicode="B" horiz-adv-x="1095" 
d="M324 860h49q157 0 244.5 53.5t87.5 204.5q0 215 -130.5 234.5t-197.5 19.5h-53v-512zM324 172h147q250 0 307.5 95t57.5 210.5t-117 172.5t-277 57h-118v-535zM131 1544h188q255 0 410.5 -92.5t155.5 -331.5q0 -88 -45 -172t-121 -121v-4q135 -24 222 -138.5t87 -242.5
q0 -228 -155 -335t-381 -107h-361v1544z" />
    <glyph glyph-name="C" unicode="C" horiz-adv-x="1353" 
d="M864 1401q-129 0 -240.5 -50.5t-240.5 -186t-129 -393.5t176 -443t421 -185t421 160v-227q-185 -109 -406 -109q-166 0 -312 61.5t-256 169t-173.5 253t-63.5 315.5t64.5 318.5t176.5 258t261.5 172t342.5 62.5t366 -104v-224q-173 152 -408 152z" />
    <glyph glyph-name="D" unicode="D" horiz-adv-x="1361" 
d="M131 1544h320q373 0 619.5 -196.5t246.5 -572.5t-244 -575.5t-629 -199.5h-313v1544zM324 176h67q512 0 622.5 214t110.5 455.5t-202 382t-531 140.5h-67v-1192z" />
    <glyph glyph-name="E" unicode="E" horiz-adv-x="1067" 
d="M147 1544h830v-176h-637v-432h618v-176h-618v-584h637v-176h-830v1544z" />
    <glyph glyph-name="F" unicode="F" horiz-adv-x="970" 
d="M338 1368v-434h536v-176h-536v-758h-193v1544h748v-176h-555z" />
    <glyph glyph-name="G" unicode="G" horiz-adv-x="1597" 
d="M1554 778v-61q0 -322 -205.5 -536t-446 -214t-383 64.5t-248 175t-167 256t-61.5 308.5t62.5 310.5t171 258t255 174t319.5 63.5t340 -78t282 -221l-136 -129q-84 113 -214 182.5t-265 69.5t-247.5 -49t-195.5 -134t-131 -200t-48 -240t47 -238.5t128 -201.5t190 -141.5
t217 -53.5q203 0 359 136t164 323h-399v176h612z" />
    <glyph glyph-name="H" unicode="H" horiz-adv-x="1382" 
d="M1059 922v622h192v-1544h-192v741h-735v-741h-193v1544h193v-622h735z" />
    <glyph glyph-name="I" unicode="I" horiz-adv-x="475" 
d="M334 0h-193v1544h193v-1544z" />
    <glyph glyph-name="J" unicode="J" horiz-adv-x="741" 
d="M621 1544v-981q0 -271 -87 -433.5t-331 -162.5q-131 0 -242 68l96 164q68 -51 152 -51q147 -1 183 114t36 301v981h193z" />
    <glyph glyph-name="K" unicode="K" horiz-adv-x="1228" 
d="M340 0h-193v1544h193v-670l655 670h252l-694 -694l707 -850h-261l-581 719l-78 -74v-645z" />
    <glyph glyph-name="L" unicode="L" horiz-adv-x="788" 
d="M340 176h469v-176h-662v1544h193v-1368z" />
    <glyph glyph-name="M" unicode="M" horiz-adv-x="1742" 
d="M410 1020h-4l-181 -1020h-198l315 1610l530 -1217l531 1217l315 -1610h-198l-181 1020h-4l-463 -1053z" />
    <glyph glyph-name="N" unicode="N" horiz-adv-x="1607" 
d="M1288 1544h193v-1607l-1159 1214v-1151h-193v1618l1159 -1215v1141z" />
    <glyph glyph-name="O" unicode="O" horiz-adv-x="1695" 
d="M848 1577q166 0 313.5 -63.5t257 -173t174 -256t64.5 -315.5t-63.5 -316.5t-173 -255t-257 -169t-315.5 -61.5t-315.5 61.5t-257 169t-173 255t-63.5 316.5t64.5 315.5t174 256t257 173t313.5 63.5zM1281 328q183 181 183 443t-175.5 444t-375.5 182t-314 -50.5
t-241 -183t-127 -393.5t183.5 -442t433.5 -181t433 181z" />
    <glyph glyph-name="P" unicode="P" horiz-adv-x="1013" 
d="M340 0h-193v1544h222q343 0 482.5 -111.5t139.5 -337.5t-149.5 -337t-390.5 -111h-111v-647zM340 819h61q184 0 297 59.5t113 222.5t-117 217t-303 54h-51v-553z" />
    <glyph glyph-name="Q" unicode="Q" horiz-adv-x="1695" 
d="M39 769q0 169 64.5 315.5t174 256t257 173t313.5 63.5t313.5 -63.5t257 -173t174 -256t64.5 -312.5t-63.5 -313.5t-178.5 -255.5l240 -236h-234l-133 137q-199 -137 -469 -137q-139 0 -286.5 61.5t-257 169t-173 255t-63.5 316.5zM1464 772q0 261 -175.5 443t-375.5 182
t-314 -50.5t-241 -183t-127 -393.5t183.5 -442t433.5 -181q168 0 307 89l-354 346h239l244 -242q131 114 155.5 245.5t24.5 186.5z" />
    <glyph glyph-name="R" unicode="R" horiz-adv-x="1112" 
d="M340 653v-653h-193v1544h234q102 0 208.5 -10t201.5 -64t147.5 -155t52.5 -198q0 -182 -102.5 -303.5t-267.5 -141.5l487 -672h-234l-454 653h-80zM340 813h61q186 0 298 60t112 221t-117.5 219.5t-302.5 58.5h-51v-559z" />
    <glyph glyph-name="S" unicode="S" horiz-adv-x="1099" 
d="M328 1181q0 -82 60 -134t155 -91l110 -43q192 -77 287.5 -181t95.5 -299t-142.5 -330.5t-339.5 -135.5t-330 121.5t-158 310.5l194 41q0 -129 86 -211t209.5 -82t206 89t82.5 229.5t-108.5 198t-157.5 77.5l-107 45q-162 71 -249 157t-87 235q0 179 135.5 289t319.5 110
q129 0 231.5 -60.5t165.5 -173.5l-153 -92q-88 146 -228 146q-184 0 -231 -84t-47 -132z" />
    <glyph glyph-name="T" unicode="T" horiz-adv-x="933" 
d="M563 0h-192v1368h-367v176h926v-176h-367v-1368z" />
    <glyph glyph-name="U" unicode="U" horiz-adv-x="1370" 
d="M686 147q373 0 373 486v911h192v-977q0 -261 -153 -430.5t-412.5 -169.5t-412 170.5t-152.5 429.5v977h192v-911q0 -486 373 -486z" />
    <glyph glyph-name="V" unicode="V" horiz-adv-x="1310" 
d="M657 401l459 1143h211l-670 -1626l-671 1626h211z" />
    <glyph glyph-name="W" unicode="W" horiz-adv-x="2103" 
d="M616 438l437 1139l436 -1139l432 1106h209l-641 -1605l-436 1132l-437 -1132l-641 1605h209z" />
    <glyph glyph-name="X" unicode="X" horiz-adv-x="1175" 
d="M59 1544h220l315 -563l336 563h219l-444 -735l469 -809h-216l-364 633l-379 -633h-215l485 809z" />
    <glyph glyph-name="Y" unicode="Y" horiz-adv-x="1173" 
d="M684 0h-192v672l-504 872h221l379 -659l379 659h221l-504 -872v-672z" />
    <glyph glyph-name="Z" unicode="Z" horiz-adv-x="1130" 
d="M1114 176v-176h-1096l783 1368h-672v176h985l-782 -1368h782z" />
    <glyph glyph-name="bracketleft" unicode="[" horiz-adv-x="636" 
d="M313 -223h201v-172h-389v2052h389v-172h-201v-1708z" />
    <glyph glyph-name="backslash" unicode="\" horiz-adv-x="1128" 
d="M236 1778l827 -1778h-172l-828 1778h173z" />
    <glyph glyph-name="bracketright" unicode="]" horiz-adv-x="636" 
d="M324 1485h-201v172h389v-2052h-389v172h201v1708z" />
    <glyph glyph-name="asciicircum" unicode="^" 
d="M477 1544h230l409 -913h-192l-332 741l-334 -741h-190z" />
    <glyph glyph-name="underscore" unicode="_" horiz-adv-x="1024" 
d="M1024 -385h-1024v154h1024v-154z" />
    <glyph glyph-name="grave" unicode="`" horiz-adv-x="737" 
d="M326 1503l256 -340l-90 -55l-336 305z" />
    <glyph glyph-name="a" unicode="a" horiz-adv-x="1138" 
d="M852 479q0 147 -84 245.5t-225 98.5t-223 -102t-82 -241t79.5 -244t224.5 -105q144 0 227 100.5t83 247.5zM842 799v159h184v-958h-184v150h-4q-55 -82 -138.5 -132.5t-191.5 -50.5q-210 0 -332.5 152.5t-122.5 361.5t125.5 357.5t329.5 148.5t330 -188h4z" />
    <glyph glyph-name="b" unicode="b" horiz-adv-x="1138" 
d="M818 232q83 101 83 247q0 147 -84 245.5t-224 98.5t-223 -101.5t-83 -241t79.5 -244.5t223.5 -105q145 0 228 101zM301 799q125 188 328 188q204 0 330 -147.5t126 -358.5t-123 -362.5t-335 -151.5q-102 0 -186.5 50.5t-139.5 132.5h-4v-150h-184v1778h184v-979h4z" />
    <glyph glyph-name="c" unicode="c" horiz-adv-x="903" 
d="M595 987q128 0 236 -63v-238q-113 129 -260 129t-240 -99.5t-93 -241.5t93 -238.5t240 -96.5q146 0 260 127v-235q-115 -64 -243 -64q-236 0 -385.5 145.5t-149.5 363.5t150.5 364.5t391.5 146.5z" />
    <glyph glyph-name="d" unicode="d" horiz-adv-x="1138" 
d="M852 479q0 147 -84 245.5t-225 98.5t-223 -102t-82 -241t79.5 -244t224.5 -105q144 0 227 100.5t83 247.5zM842 799v979h184v-1778h-184v150h-4q-55 -82 -139.5 -132.5t-190.5 -50.5q-211 0 -333 151t-122 362q0 210 125.5 358.5t329.5 148.5t330 -188h4z" />
    <glyph glyph-name="e" unicode="e" horiz-adv-x="999" 
d="M238 449q0 -129 80.5 -223.5t197.5 -94.5q116 0 180 50t117 136l156 -88q-68 -125 -185.5 -193.5t-243.5 -68.5q-230 0 -358.5 143.5t-128.5 365.5t120.5 366.5t342.5 144.5t337.5 -143.5t115.5 -366.5v-28h-731zM521 827q-110 0 -183.5 -67.5t-89.5 -171.5h536
q-16 109 -84.5 174t-178.5 65z" />
    <glyph glyph-name="f" unicode="f" horiz-adv-x="563" 
d="M164 1425q0 377 309 377q68 0 129 -24v-187q-29 12 -61.5 25.5t-71.5 13.5t-65.5 -27.5t-41 -74t-14.5 -158.5v-412h254v-172h-254v-786h-184v786h-84v172h84v467z" />
    <glyph glyph-name="g" unicode="g" horiz-adv-x="1136" 
d="M767 232q83 101 83 247q0 147 -84 245.5t-225 98.5t-223 -101t-82 -242t80 -245t224 -104t227 101zM840 795v163h184v-940q0 -271 -101 -419t-366 -148q-202 0 -330.5 117t-132.5 317h185q0 -129 79.5 -199.5t185.5 -70.5t160 27.5t95 93t41 231.5v183h-4
q-55 -82 -139.5 -132.5t-190.5 -50.5q-211 0 -333 151t-122 362q0 210 125.5 358.5t330.5 148.5t329 -192h4z" />
    <glyph glyph-name="h" unicode="h" horiz-adv-x="1071" 
d="M311 1778v-949h4q43 78 122 118t173 40q186 0 260 -111.5t74 -304.5v-571h-184v549q0 143 -29 189t-71 65.5t-122 19.5q-149 0 -188 -101.5t-39 -281.5v-440h-184v1778h184z" />
    <glyph glyph-name="i" unicode="i" horiz-adv-x="520" 
d="M352 0h-184v958h184v-958zM260 1526q53 0 90 -38t37 -91.5t-37 -89t-90 -35.5t-90 35.5t-37 89t37 91.5t90 38z" />
    <glyph glyph-name="j" unicode="j" horiz-adv-x="520" 
d="M352 -549h-184v1507h184v-1507zM260 1526q53 0 90 -38t37 -91.5t-37 -89t-90 -35.5t-90 35.5t-37 89t37 91.5t90 38z" />
    <glyph glyph-name="k" unicode="k" horiz-adv-x="946" 
d="M324 0h-185v1778h185v-1180l360 360h244l-410 -397l451 -561h-240l-342 436l-63 -63v-373z" />
    <glyph glyph-name="l" unicode="l" horiz-adv-x="454" 
d="M319 0h-184v1778h184v-1778z" />
    <glyph glyph-name="m" unicode="m" horiz-adv-x="1570" 
d="M1136 987q316 0 316 -414v-573h-184v543q0 120 -23.5 173.5t-58 80t-102.5 26.5q-123 0 -164 -99t-41 -253v-471h-185v508q0 135 -20.5 193.5t-56 90t-104.5 31.5q-128 0 -168 -98t-40 -254v-471h-184v958h184v-120h4q41 63 108.5 106t145.5 43q177 0 277 -170
q45 78 123.5 124t172.5 46z" />
    <glyph glyph-name="n" unicode="n" horiz-adv-x="1071" 
d="M311 829h4q43 78 122 118t173 40q186 0 260 -111.5t74 -304.5v-571h-184v549q0 143 -29 189t-71 65.5t-122 19.5q-149 0 -188 -101.5t-39 -281.5v-440h-184v958h184v-129z" />
    <glyph glyph-name="o" unicode="o" horiz-adv-x="1105" 
d="M917.5 114.5q-147.5 -147.5 -364.5 -147.5t-364.5 147.5t-147.5 362.5t147.5 362.5t364.5 147.5t364.5 -147.5t147.5 -362.5t-147.5 -362.5zM553 811q-68 0 -128 -26.5t-104.5 -71.5t-70 -106.5t-25.5 -129t25.5 -128t70 -106.5t104.5 -73t128 -27t128 27t104 73
t70 106.5t26 128t-26 129t-70 106.5t-104 71.5t-128 26.5z" />
    <glyph glyph-name="p" unicode="p" horiz-adv-x="1138" 
d="M818 232q83 101 83 247q0 147 -84 245.5t-224 98.5t-223 -101.5t-83 -241t79.5 -244.5t223.5 -105q145 0 228 101zM301 799q125 188 328 188q204 0 330 -147.5t126 -358.5t-123 -362.5t-335 -151.5q-102 0 -186.5 50.5t-139.5 132.5h-4v-699h-184v1507h184v-159h4z" />
    <glyph glyph-name="q" unicode="q" horiz-adv-x="1138" 
d="M852 479q0 147 -84 245.5t-225 98.5t-223 -102t-82 -241t79.5 -244t224.5 -105q144 0 227 100.5t83 247.5zM842 799v159h184v-1507h-184v699h-4q-55 -82 -139.5 -132.5t-190.5 -50.5q-211 0 -333 151t-122 362q0 210 125.5 358.5t329.5 148.5t330 -188h4z" />
    <glyph glyph-name="r" unicode="r" horiz-adv-x="718" 
d="M545 811q-133 0 -177 -96.5t-44 -243.5v-471h-185v958h185v-155h6q35 86 102.5 135t154.5 49t156 -47l-84 -168q-42 39 -114 39z" />
    <glyph glyph-name="s" unicode="s" horiz-adv-x="786" 
d="M229 254q67 -123 171 -123q62 0 105.5 37t43.5 87t-17.5 71.5t-50.5 44.5l-180 96q-89 43 -136.5 96.5t-47.5 128.5q0 131 82 213t185 82q194 0 278 -168l-150 -80q-16 35 -49 59.5t-73 24.5t-70.5 -26.5t-30.5 -62.5t19.5 -59.5t50 -44t70.5 -38t172 -73t132 -218.5
q0 -151 -96 -242.5t-218 -91.5t-217 58.5t-130 156.5z" />
    <glyph glyph-name="t" unicode="t" horiz-adv-x="491" 
d="M338 0h-184v786h-101v172h101v367h184v-367h180v-172h-180v-786z" />
    <glyph glyph-name="u" unicode="u" horiz-adv-x="1048" 
d="M303 958v-530q0 -205 77 -247t173 -42t144 78t48 211v530h185v-550q0 -316 -149.5 -378.5t-306 -62.5t-256 118t-99.5 323v550h184z" />
    <glyph glyph-name="v" unicode="v" horiz-adv-x="911" 
d="M455 360l276 598h207l-483 -991l-482 991h207z" />
    <glyph glyph-name="w" unicode="w" horiz-adv-x="1470" 
d="M455 348l282 664l281 -664l278 610h209l-487 -991l-281 641l-282 -641l-488 991h209z" />
    <glyph glyph-name="x" unicode="x" horiz-adv-x="1001" 
d="M55 958h217l228 -309l248 309h223l-353 -438l412 -520h-215l-315 389l-305 -389h-224l428 520z" />
    <glyph glyph-name="y" unicode="y" horiz-adv-x="991" 
d="M-27 958h215l324 -608l301 608h207l-776 -1507h-209l377 713z" />
    <glyph glyph-name="z" unicode="z" horiz-adv-x="1013" 
d="M985 172v-172h-981l649 786h-538v172h897l-650 -786h623z" />
    <glyph glyph-name="braceleft" unicode="{" horiz-adv-x="684" 
d="M252 1014v372q0 113 60 192t114 79h160v-172h-82q-47 0 -55.5 -38t-8.5 -89v-377q0 -150 -55.5 -237.5t-99.5 -114.5q87 -52 121 -157t34 -193v-377q0 -51 8.5 -89t55.5 -38h82v-172h-160q-54 0 -114 78t-60 192v373q0 240 -154 309v150q154 69 154 309z" />
    <glyph glyph-name="bar" unicode="|" horiz-adv-x="1167" 
d="M672 0h-176v1778h176v-1778z" />
    <glyph glyph-name="braceright" unicode="}" horiz-adv-x="684" 
d="M432 246v-373q0 -114 -60 -192t-114 -78h-160v172h82q47 0 55.5 37.5t8.5 89.5v377q0 150 54.5 236t100.5 114q-87 52 -121 158t-34 194v377q0 51 -8.5 89t-55.5 38h-82v172h160q54 0 114 -79t60 -192v-372q0 -242 154 -309v-150q-154 -69 -154 -309z" />
    <glyph glyph-name="asciitilde" unicode="~" 
d="M804 332q-56 0 -116.5 32.5t-118 71.5t-104.5 72t-90 33t-86 -44t-92 -124l-129 92q27 39 58.5 84t96.5 106.5t149 61.5q85 0 146.5 -33t112.5 -72t93 -71.5t75 -32.5q54 0 88 38.5t92 137.5l137 -102q-56 -106 -109 -154.5t-100 -72t-103 -23.5z" />
    <glyph glyph-name="Euro" 
d="M858 1577q193 0 348 -84l-43 -174q-74 45 -144.5 63.5t-184.5 18.5q-211 0 -330.5 -132t-153.5 -327h731l-28 -119h-719q-2 -25 -2 -27v-26q0 -42 8 -98h661l-28 -119h-613q35 -172 155.5 -291t320.5 -119q145 0 213.5 36t113.5 67v-207q-132 -72 -291 -72
q-295 0 -481 150t-233 436h-158l29 119h114q-4 58 -4 84v2l2 65h-139l29 119h123q53 313 243.5 474t460.5 161z" />
    <glyph glyph-name="Euro" unicode="&#x20ac;" 
d="M858 1577q193 0 348 -84l-43 -174q-74 45 -144.5 63.5t-184.5 18.5q-211 0 -330.5 -132t-153.5 -327h731l-28 -119h-719q-2 -25 -2 -27v-26q0 -42 8 -98h661l-28 -119h-613q35 -172 155.5 -291t320.5 -119q145 0 213.5 36t113.5 67v-207q-132 -72 -291 -72
q-295 0 -481 150t-233 436h-158l29 119h114q-4 58 -4 84v2l2 65h-139l29 119h123q53 313 243.5 474t460.5 161z" />
    <glyph glyph-name="Zcaron" horiz-adv-x="1130" 
d="M1114 176v-176h-1096l783 1368h-672v176h985l-782 -1368h782zM356 2089l207 -197l209 197l121 -94l-330 -297l-325 297z" />
    <glyph glyph-name="Zcaron" unicode="&#x17d;" horiz-adv-x="1130" 
d="M1114 176v-176h-1096l783 1368h-672v176h985l-782 -1368h782zM356 2089l207 -197l209 197l121 -94l-330 -297l-325 297z" />
    <glyph glyph-name="zcaron" horiz-adv-x="1013" 
d="M985 172v-172h-981l649 786h-538v172h897l-650 -786h623zM299 1503l207 -196l209 196l121 -94l-330 -297l-326 297z" />
    <glyph glyph-name="zcaron" unicode="&#x17e;" horiz-adv-x="1013" 
d="M985 172v-172h-981l649 786h-538v172h897l-650 -786h623zM299 1503l207 -196l209 196l121 -94l-330 -297l-326 297z" />
    <glyph glyph-name="nonbreakingspace" unicode="&#xa0;" horiz-adv-x="591" 
 />
    <glyph glyph-name="exclamdown" unicode="&#xa1;" horiz-adv-x="657" 
d="M330 1040q49 0 84 -35.5t35 -83.5t-35 -83t-84 -35t-84 34.5t-35 82.5t35 84t84 36zM422 662v-1190h-184v1190h184z" />
    <glyph glyph-name="cent" unicode="&#xa2;" 
d="M979 987h-4q-43 57 -107.5 92t-138.5 37v-672q150 19 250 127v-239q-102 -49 -215 -58l-35 -2v-174h-98v183q-188 29 -307 166.5t-119 328.5t119.5 335t306.5 171v160h98v-156q154 -9 250 -63v-236zM452 570q67 -96 179 -119v653q-105 -12 -175.5 -116.5t-70.5 -213.5
q0 -108 67 -204z" />
    <glyph glyph-name="sterling" unicode="&#xa3;" 
d="M57 616v119h205q-119 227 -119 369q0 195 155.5 334t360.5 139t337.5 -132.5t144.5 -346.5l-185 -70v57q0 129 -85.5 220.5t-211.5 91.5t-228.5 -98.5t-102.5 -215.5t62.5 -213t82.5 -135h303v-119h-254q29 -96 29 -176t-29 -176l152 -53q43 -16 94 -37.5t90 -21.5
q64 0 99.5 39t78.5 112l154 -94q-43 -102 -123 -172t-189 -70t-273 66.5t-240 66.5q-127 0 -181 -133l-161 82q58 106 130 167t185 65q27 88 29 171t-45 164h-265z" />
    <glyph glyph-name="currency" unicode="&#xa4;" 
d="M1114 614.5q0 -158.5 -86 -290.5l84 -91l-123 -122l-94 90q-130 -99 -303 -99t-303 99l-94 -90l-123 122l84 91q-86 132 -86 290.5t86 290.5l-84 90l123 123l94 -90q128 98 303 98t303 -98l94 90l123 -123l-84 -90q86 -132 86 -290.5zM845 369q105 103 105 251
t-101.5 245.5t-256.5 97.5t-259 -100t-100 -247t107.5 -248.5t251.5 -101.5t253 103z" />
    <glyph glyph-name="yen" unicode="&#xa5;" 
d="M688 0h-192v532h-484v119h484v21l-111 192h-373v119h303l-323 561h221l379 -659l379 659h221l-324 -561h303v-119h-370l-113 -192v-21h483v-119h-483v-532z" />
    <glyph glyph-name="brokenbar" unicode="&#xa6;" horiz-adv-x="1167" 
d="M672 0h-176v711h176v-711zM672 1067h-176v711h176v-711z" />
    <glyph glyph-name="section" unicode="&#xa7;" 
d="M879 828q-41 39 -115 75l-377 191q-55 -35 -89 -93.5t-34 -110.5q0 -83 48.5 -125.5t125.5 -78.5l359 -178q53 35 88 93t35 123t-41 104zM279 1188q-91 104 -91 242t118.5 243t278.5 105t275 -92t127 -252h-178q-4 83 -74.5 132.5t-133.5 49.5q-107 0 -167.5 -60.5
t-60.5 -144.5q0 -109 70.5 -149.5t103.5 -57.5l272 -137q47 -25 165 -89.5t118 -213.5q0 -104 -50.5 -196.5t-131.5 -151.5q109 -102 108 -250q0 -177 -128.5 -286t-319.5 -109q-192 0 -321.5 119t-129.5 321v31h182q-4 -125 74 -214t193 -89q114 0 190 65.5t76 171.5
t-87 152.5t-122 64.5l-289 142q-138 68 -201 131t-63 183t55.5 196.5t141.5 142.5z" />
    <glyph glyph-name="dieresis" unicode="&#xa8;" horiz-adv-x="962" 
d="M265 1421q52 0 88 -35.5t36 -87.5t-36 -88t-88 -36t-88 35.5t-36 87.5t36 88t88 36zM697 1421q52 0 88 -35.5t36 -87.5t-35.5 -88t-87.5 -36t-88.5 35.5t-36.5 87.5t36 88t88 36z" />
    <glyph glyph-name="copyright" unicode="&#xa9;" horiz-adv-x="1638" 
d="M818 -33q-169 0 -315.5 62.5t-256 172t-172 256t-62.5 314.5t62.5 314.5t172 256t256 172t315.5 62.5t316.5 -62.5t257 -172t172 -256t62.5 -314.5t-62.5 -314.5t-172 -256t-257 -172t-316.5 -62.5zM818 1446q-138 0 -261 -52.5t-215 -142.5t-145.5 -213t-53.5 -265
t53.5 -266t145.5 -214t215 -142.5t261 -52.5t261 52.5t215 142.5t146.5 214t54.5 266t-54.5 265t-146.5 213t-215 142.5t-261 52.5zM852 446q205 0 252 183h125q-19 -141 -124.5 -227.5t-252.5 -86.5q-202 0 -325.5 134t-123.5 334q0 199 120 329.5t327 130.5
q143 0 246.5 -81t132.5 -224h-125q-18 86 -86 130t-161 44q-163 0 -242.5 -96t-79.5 -234q0 -230 119.5 -283t197.5 -53z" />
    <glyph glyph-name="ordfeminine" unicode="&#xaa;" horiz-adv-x="684" 
d="M491 1123q54 60 54 148q0 87 -52.5 147.5t-145.5 60.5t-147.5 -62t-54.5 -146t53 -146t146 -62t147 60zM535 1073q-80 -108 -214 -108t-215 89.5t-81 217.5t81.5 216.5t212.5 88.5q70 0 124 -31l96 -82v95h120v-574h-120v88h-4zM25 754v98h634v-98h-634z" />
    <glyph glyph-name="guillemotleft" unicode="&#xab;" horiz-adv-x="1071" 
d="M942 264l-115 -84l-372 475l372 492l115 -84l-305 -408zM549 264l-115 -84l-373 475l373 492l115 -84l-305 -408z" />
    <glyph glyph-name="logicalnot" unicode="&#xac;" 
d="M940 612h-872v176h1048v-552h-176v376z" />
    <glyph glyph-name="hyphen" unicode="&#xad;" horiz-adv-x="679" 
d="M565 733v-153h-448v153h448z" />
    <glyph glyph-name="hyphen" unicode="&#x2010;" horiz-adv-x="679" 
d="M565 733v-153h-448v153h448z" />
    <glyph glyph-name="registered" unicode="&#xae;" horiz-adv-x="1638" 
d="M818 -33q-169 0 -315.5 62.5t-256 172t-172 256t-62.5 314.5t62.5 314.5t172 256t256 172t315.5 62.5t316.5 -62.5t257 -172t172 -256t62.5 -314.5t-62.5 -314.5t-172 -256t-257 -172t-316.5 -62.5zM818 1446q-138 0 -261 -52.5t-215 -142.5t-145.5 -213t-53.5 -265
t53.5 -266t145.5 -214t215 -142.5t261 -52.5t261 52.5t215 142.5t146.5 214t54.5 266t-54.5 265t-146.5 213t-215 142.5t-261 52.5zM889 1219q311 0 311 -240q0 -124 -68 -183.5t-174 -64.5l230 -418h-150l-231 418h-168v-418h-131v906h381zM639 1087v-225h139q45 0 96.5 -1
t123 10.5t71.5 93.5q0 109 -82 115.5t-123 6.5h-225z" />
    <glyph glyph-name="macron" unicode="&#xaf;" horiz-adv-x="1024" 
d="M883 1421v-139h-740v139h740z" />
    <glyph glyph-name="degree" unicode="&#xb0;" horiz-adv-x="819" 
d="M717 1269.5q0 -63.5 -24.5 -119.5t-66.5 -97t-97.5 -65.5t-119 -24.5t-120 24.5t-97 65.5t-65.5 97t-25 119.5t24 119t65.5 97.5t98 66.5t120 24.5t119 -24.5t97.5 -66.5t66.5 -97.5t24.5 -119zM264 1414.5q-59 -60.5 -59 -146.5t58.5 -144.5t145.5 -58.5t146 58.5
t59 144.5t-60.5 146.5t-145.5 60.5t-144 -60.5z" />
    <glyph glyph-name="plusminus" unicode="&#xb1;" 
d="M68 176h1048v-176h-1048v176zM680 1151v-354h436v-176h-436v-355h-176v355h-436v176h436v354h176z" />
    <glyph glyph-name="twosuperior" unicode="&#xb2;" horiz-adv-x="708" 
d="M680 737v-119h-649l440 498q78 88 78 161t-59.5 121t-131.5 48t-122 -43t-54 -113h-137q14 123 97 199t217 76t227.5 -79t93.5 -196t-68 -194l-317 -359h385z" />
    <glyph glyph-name="threesuperior" unicode="&#xb3;" horiz-adv-x="708" 
d="M354 729q74 0 130.5 44t56.5 122t-60.5 124t-146.5 42v119q86 0 139 33.5t53 103.5q0 101 -69.5 121t-114.5 20t-92 -27.5t-47 -87.5h-137q18 115 94 174.5t199 59.5t210.5 -67t87.5 -194t-135 -198q150 -67 150 -229q0 -128 -95.5 -203.5t-224.5 -75.5t-219 70.5
t-94 179.5h131q19 -131 184 -131z" />
    <glyph glyph-name="acute" unicode="&#xb4;" horiz-adv-x="737" 
d="M582 1413l-336 -305l-90 55l256 340z" />
    <glyph glyph-name="mu" unicode="&#xb5;" horiz-adv-x="1048" 
d="M521 -33q-110 0 -218 90v-606h-184v1507h184v-530q0 -205 77 -247t173 -42t144 78t48 211v530h185v-550q0 -316 -149.5 -378.5t-259.5 -62.5z" />
    <glyph glyph-name="paragraph" unicode="&#xb6;" 
d="M1102 1372h-125v-1685h-172v1685h-127v-1685h-172v893q-179 0 -292.5 117t-129.5 321q-6 92 23.5 186t88 170t142.5 123t186 47h578v-172z" />
    <glyph glyph-name="periodcentered" unicode="&#xb7;" horiz-adv-x="591" 
d="M297 643q49 0 84 -36t35 -84t-35 -82.5t-84 -34.5t-84 34.5t-35 82.5t35 84t84 36z" />
    <glyph glyph-name="periodcentered" unicode="&#x22c5;" horiz-adv-x="591" 
d="M297 643q49 0 84 -36t35 -84t-35 -82.5t-84 -34.5t-84 34.5t-35 82.5t35 84t84 36z" />
    <glyph glyph-name="periodcentered" unicode="&#x2219;" horiz-adv-x="591" 
d="M297 643q49 0 84 -36t35 -84t-35 -82.5t-84 -34.5t-84 34.5t-35 82.5t35 84t84 36z" />
    <glyph glyph-name="cedilla" unicode="&#xb8;" horiz-adv-x="675" 
d="M285 -371l-109 56l178 280l146 -59z" />
    <glyph glyph-name="onesuperior" unicode="&#xb9;" horiz-adv-x="708" 
d="M440 1544v-926h-131v807h-176l70 119h237z" />
    <glyph glyph-name="ordmasculine" unicode="&#xba;" horiz-adv-x="663" 
d="M331.5 1577q69.5 0 131 -23.5t106.5 -64.5t71 -97.5t26 -122t-26 -120.5t-71 -96t-106.5 -64.5t-131 -23.5t-130 23.5t-105.5 64.5t-70.5 96t-25.5 120.5t25.5 122t70.5 97.5t105.5 64.5t130 23.5zM332 1470q-90 0 -150.5 -58t-60.5 -141t62.5 -141.5t149.5 -58.5
t149.5 58.5t62.5 141.5t-61.5 141t-151.5 58zM0 754v98h666v-98h-666z" />
    <glyph glyph-name="guillemotright" unicode="&#xbb;" horiz-adv-x="1071" 
d="M434 655l-305 408l115 84l372 -492l-372 -475l-115 84zM827 655l-305 408l115 84l373 -492l-373 -475l-115 84z" />
    <glyph glyph-name="onequarter" unicode="&#xbc;" horiz-adv-x="1775" 
d="M389 1544v-926h-131v807h-176l70 119h237zM1694 254v-119h-101v-135h-131v135h-497l628 834v-715h101zM1462 590h-6l-252 -336h258v336zM1397 1524l-901 -1557l-105 58l901 1552z" />
    <glyph glyph-name="onehalf" unicode="&#xbd;" horiz-adv-x="1775" 
d="M258 1425h-176l70 119h237v-926h-131v807zM1694 119v-119h-650l441 498q78 88 78 161t-59 120.5t-131 47.5q-73 0 -123 -43t-54 -112h-137q14 123 97 198.5t216 75.5t227.5 -79.5t94.5 -196.5t-68 -193l-317 -358h385zM1290 1524l-901 -1557l-104 58l901 1552z" />
    <glyph glyph-name="threequarters" unicode="&#xbe;" horiz-adv-x="1775" 
d="M1694 254v-119h-101v-135h-131v135h-497l628 834v-715h101zM1462 590h-6l-252 -336h258v336zM397 729q74 0 130.5 44t56.5 122t-60.5 124t-146.5 42v119q86 0 139 33.5t53 103.5q0 101 -69.5 121t-114.5 20t-92 -27.5t-47 -87.5h-137q18 115 94 174.5t199 59.5t210.5 -67
t87.5 -194t-135 -198q150 -67 150 -229q0 -128 -95.5 -203.5t-224.5 -75.5t-219 70.5t-94 179.5h131q19 -131 184 -131zM1511 1524l-901 -1557l-104 58l901 1552z" />
    <glyph glyph-name="questiondown" unicode="&#xbf;" horiz-adv-x="927" 
d="M637 -210q0 26 -12 77h192l4 -68q8 -145 -103.5 -246.5t-265.5 -101.5t-260 104t-106 259t111 254q51 45 120 69.5t129 42.5t107 51t47 97t-41 107.5t-105 43.5t-104.5 -46t-38.5 -111h-186q-8 129 94.5 229t238.5 100q135 0 231.5 -94.5t96.5 -232.5q0 -186 -105 -235
t-198.5 -83.5t-152 -72.5t-58.5 -125t54 -135t130 -48t128.5 52.5t52.5 112.5zM457 1040q49 0 83.5 -35.5t34.5 -83.5t-34.5 -83t-83.5 -35t-84 34.5t-35 82.5t35 84t84 36z" />
    <glyph glyph-name="Agrave" unicode="&#xc0;" horiz-adv-x="1439" 
d="M367 387l-177 -387h-206l737 1610l737 -1610h-207l-176 387h-708zM721 1188l-275 -625h549zM678 2089l256 -340l-90 -55l-336 305z" />
    <glyph glyph-name="Aacute" unicode="&#xc1;" horiz-adv-x="1439" 
d="M367 387l-177 -387h-206l737 1610l737 -1610h-207l-176 387h-708zM721 1188l-275 -625h549zM934 1999l-336 -305l-90 55l256 340z" />
    <glyph glyph-name="Acircumflex" unicode="&#xc2;" horiz-adv-x="1439" 
d="M367 387l-177 -387h-206l737 1610l737 -1610h-207l-176 387h-708zM721 1188l-275 -625h549zM719 2089l330 -297l-121 -94l-209 196l-207 -196l-119 94z" />
    <glyph glyph-name="Atilde" unicode="&#xc3;" horiz-adv-x="1439" 
d="M367 387l-177 -387h-206l737 1610l737 -1610h-207l-176 387h-708zM721 1188l-275 -625h549zM557 2007q85 0 184 -54.5t145 -54.5t77.5 32t54.5 67l96 -80q-35 -72 -95.5 -120t-134.5 -48t-182 53q-41 18 -79.5 34.5t-78.5 16.5t-71 -30.5t-47 -63.5l-96 82
q100 166 227 166z" />
    <glyph glyph-name="Adieresis" unicode="&#xc4;" horiz-adv-x="1439" 
d="M367 387l-177 -387h-206l737 1610l737 -1610h-207l-176 387h-708zM721 1188l-275 -625h549zM505 2007q52 0 88 -36t36 -88t-36 -88t-88 -36t-88 36t-36 88t36 88t88 36zM937 2007q52 0 88 -36t36 -88t-36 -88t-88 -36t-88 36t-36 88t36 88t88 36z" />
    <glyph glyph-name="Aring" unicode="&#xc5;" horiz-adv-x="1439" 
d="M367 387l-177 -387h-206l737 1610l737 -1610h-207l-176 387h-708zM721 1188l-275 -625h549zM907 1882q0 -100 -73.5 -132t-112.5 -32q-78 0 -131 53.5t-53 131t53 132t130 54.5t132 -53.5t55 -153.5zM722 1810q38 0 65.5 27t27.5 66t-27.5 66.5t-65.5 27.5t-65.5 -27.5
t-27.5 -66.5t27.5 -66t65.5 -27z" />
    <glyph glyph-name="AE" unicode="&#xc6;" horiz-adv-x="2041" 
d="M387 387l-176 -387h-211l741 1544h676l78 -176h-633l187 -432h616l82 -176h-619l248 -584h637l78 -176h-831l-170 387h-703zM752 1161l-283 -598h549z" />
    <glyph glyph-name="Ccedilla" unicode="&#xc7;" horiz-adv-x="1353" 
d="M864 1401q-129 0 -240.5 -50.5t-240.5 -186t-129 -393.5t176 -443t421 -185t421 160v-227q-185 -109 -406 -109q-166 0 -312 61.5t-256 169t-173.5 253t-63.5 315.5t64.5 318.5t176.5 258t261.5 172t342.5 62.5t366 -104v-224q-173 152 -408 152zM625 -371l-109 56
l178 280l146 -59z" />
    <glyph glyph-name="Egrave" unicode="&#xc8;" horiz-adv-x="1067" 
d="M147 1544h830v-176h-637v-432h618v-176h-618v-584h637v-176h-830v1544zM492 2089l256 -340l-91 -55l-335 305z" />
    <glyph glyph-name="Eacute" unicode="&#xc9;" horiz-adv-x="1067" 
d="M147 1544h830v-176h-637v-432h618v-176h-618v-584h637v-176h-830v1544zM772 1999l-336 -305l-90 55l256 340z" />
    <glyph glyph-name="Ecircumflex" unicode="&#xca;" horiz-adv-x="1067" 
d="M147 1544h830v-176h-637v-432h618v-176h-618v-584h637v-176h-830v1544zM532 2089l330 -297l-121 -94l-209 196l-206 -196l-119 94z" />
    <glyph glyph-name="Edieresis" unicode="&#xcb;" horiz-adv-x="1067" 
d="M147 1544h830v-176h-637v-432h618v-176h-618v-584h637v-176h-830v1544zM343 2007q52 0 88 -36t36 -88t-36 -88t-88 -36t-88 36t-36 88t36 88t88 36zM775 2007q52 0 88 -36t36 -88t-36 -88t-88 -36t-88 36t-36 88t36 88t88 36z" />
    <glyph glyph-name="Igrave" unicode="&#xcc;" horiz-adv-x="475" 
d="M334 0h-193v1544h193v-1544zM195 2089l256 -340l-91 -55l-335 305z" />
    <glyph glyph-name="Iacute" unicode="&#xcd;" horiz-adv-x="475" 
d="M334 0h-193v1544h193v-1544zM451 1999l-336 -305l-90 55l256 340z" />
    <glyph glyph-name="Icircumflex" unicode="&#xce;" horiz-adv-x="475" 
d="M334 0h-193v1544h193v-1544zM236 2089l329 -297l-121 -94l-208 196l-207 -196l-119 94z" />
    <glyph glyph-name="Idieresis" unicode="&#xcf;" horiz-adv-x="475" 
d="M334 0h-193v1544h193v-1544zM22 2007q52 0 87.5 -36t35.5 -88t-35.5 -88t-87.5 -36t-88 36t-36 88t36 88t88 36zM454 2007q52 0 88 -36t36 -88t-36 -88t-88 -36t-88 36t-36 88t36 88t88 36z" />
    <glyph glyph-name="Eth" unicode="&#xd0;" horiz-adv-x="1361" 
d="M131 1544h320q373 0 619.5 -196.5t246.5 -572.5t-244 -575.5t-629 -199.5h-313v741h-131v181h131v622zM324 922h274v-181h-274v-565h67q512 0 622.5 214t110.5 455.5t-202 382t-531 140.5h-67v-446z" />
    <glyph glyph-name="Ntilde" unicode="&#xd1;" horiz-adv-x="1607" 
d="M1288 1544h193v-1607l-1159 1214v-1151h-193v1618l1159 -1215v1141zM641 2007q85 0 184 -54.5t145 -54.5t77.5 32t54.5 67l96 -80q-35 -72 -95.5 -120t-134.5 -48t-182 53q-41 18 -79.5 34.5t-78.5 16.5t-71 -30.5t-47 -63.5l-96 82q100 166 227 166z" />
    <glyph glyph-name="Ograve" unicode="&#xd2;" horiz-adv-x="1695" 
d="M848 1577q166 0 313.5 -63.5t257 -173t174 -256t64.5 -315.5t-63.5 -316.5t-173 -255t-257 -169t-315.5 -61.5t-315.5 61.5t-257 169t-173 255t-63.5 316.5t64.5 315.5t174 256t257 173t313.5 63.5zM1281 328q183 181 183 443t-175.5 444t-375.5 182t-314 -50.5
t-241 -183t-127 -393.5t183.5 -442t433.5 -181t433 181zM805 2089l256 -340l-90 -55l-336 305z" />
    <glyph glyph-name="Oacute" unicode="&#xd3;" horiz-adv-x="1695" 
d="M848 1577q166 0 313.5 -63.5t257 -173t174 -256t64.5 -315.5t-63.5 -316.5t-173 -255t-257 -169t-315.5 -61.5t-315.5 61.5t-257 169t-173 255t-63.5 316.5t64.5 315.5t174 256t257 173t313.5 63.5zM1281 328q183 181 183 443t-175.5 444t-375.5 182t-314 -50.5
t-241 -183t-127 -393.5t183.5 -442t433.5 -181t433 181zM1061 1999l-336 -305l-90 55l256 340z" />
    <glyph glyph-name="Ocircumflex" unicode="&#xd4;" horiz-adv-x="1695" 
d="M848 1577q166 0 313.5 -63.5t257 -173t174 -256t64.5 -315.5t-63.5 -316.5t-173 -255t-257 -169t-315.5 -61.5t-315.5 61.5t-257 169t-173 255t-63.5 316.5t64.5 315.5t174 256t257 173t313.5 63.5zM1281 328q183 181 183 443t-175.5 444t-375.5 182t-314 -50.5
t-241 -183t-127 -393.5t183.5 -442t433.5 -181t433 181zM846 2089l330 -297l-121 -94l-209 196l-207 -196l-119 94z" />
    <glyph glyph-name="Otilde" unicode="&#xd5;" horiz-adv-x="1695" 
d="M848 1577q166 0 313.5 -63.5t257 -173t174 -256t64.5 -315.5t-63.5 -316.5t-173 -255t-257 -169t-315.5 -61.5t-315.5 61.5t-257 169t-173 255t-63.5 316.5t64.5 315.5t174 256t257 173t313.5 63.5zM1281 328q183 181 183 443t-175.5 444t-375.5 182t-314 -50.5
t-241 -183t-127 -393.5t183.5 -442t433.5 -181t433 181zM684 2007q85 0 184 -54.5t145 -54.5t77.5 32t54.5 67l96 -80q-35 -72 -95.5 -120t-134.5 -48t-182 53q-41 18 -79.5 34.5t-78.5 16.5t-71 -30.5t-47 -63.5l-96 82q100 166 227 166z" />
    <glyph glyph-name="Odieresis" unicode="&#xd6;" horiz-adv-x="1695" 
d="M848 1577q166 0 313.5 -63.5t257 -173t174 -256t64.5 -315.5t-63.5 -316.5t-173 -255t-257 -169t-315.5 -61.5t-315.5 61.5t-257 169t-173 255t-63.5 316.5t64.5 315.5t174 256t257 173t313.5 63.5zM1281 328q183 181 183 443t-175.5 444t-375.5 182t-314 -50.5
t-241 -183t-127 -393.5t183.5 -442t433.5 -181t433 181zM632 2007q52 0 88 -36t36 -88t-36 -88t-88 -36t-88 36t-36 88t36 88t88 36zM1064 2007q52 0 88 -36t36 -88t-36 -88t-88 -36t-88 36t-36 88t36 88t88 36z" />
    <glyph glyph-name="multiply" unicode="&#xd7;" 
d="M190 1049l402 -400l401 400l123 -125l-399 -400l399 -399l-123 -125l-401 399l-402 -399l-122 125l399 399l-399 400z" />
    <glyph glyph-name="Oslash" unicode="&#xd8;" horiz-adv-x="1695" 
d="M1657 772q0 -172 -63.5 -319.5t-173 -255t-257 -169t-311.5 -61.5t-292 51.5t-245 143.5l-204 -205l-84 86l202 203q-190 210 -190 451t64.5 387.5t174 256t257 173t301.5 63.5t297 -52t249 -153l205 205l82 -84l-205 -205q193 -243 193 -516zM358 1163.5
q-127 -132.5 -127 -375.5t134 -417l884 876q-158 154 -401 150q-135 0 -249 -50.5t-241 -183zM457 291q148 -144 394 -144q247 0 430 181t183 444q0 215 -135 387z" />
    <glyph glyph-name="Ugrave" unicode="&#xd9;" horiz-adv-x="1370" 
d="M686 147q373 0 373 486v911h192v-977q0 -261 -153 -430.5t-412.5 -169.5t-412 170.5t-152.5 429.5v977h192v-911q0 -486 373 -486zM618 2089l256 -340l-90 -55l-335 305z" />
    <glyph glyph-name="Uacute" unicode="&#xda;" horiz-adv-x="1370" 
d="M686 147q373 0 373 486v911h192v-977q0 -261 -153 -430.5t-412.5 -169.5t-412 170.5t-152.5 429.5v977h192v-911q0 -486 373 -486zM899 1999l-336 -305l-90 55l256 340z" />
    <glyph glyph-name="Ucircumflex" unicode="&#xdb;" horiz-adv-x="1370" 
d="M686 147q373 0 373 486v911h192v-977q0 -261 -153 -430.5t-412.5 -169.5t-412 170.5t-152.5 429.5v977h192v-911q0 -486 373 -486zM684 2089l330 -297l-121 -94l-209 196l-207 -196l-119 94z" />
    <glyph glyph-name="Udieresis" unicode="&#xdc;" horiz-adv-x="1370" 
d="M686 147q373 0 373 486v911h192v-977q0 -261 -153 -430.5t-412.5 -169.5t-412 170.5t-152.5 429.5v977h192v-911q0 -486 373 -486zM470 2007q52 0 88 -36t36 -88t-36 -88t-88 -36t-88 36t-36 88t36 88t88 36zM902 2007q52 0 88 -36t36 -88t-36 -88t-88 -36t-88 36t-36 88
t36 88t88 36z" />
    <glyph glyph-name="Yacute" unicode="&#xdd;" horiz-adv-x="1173" 
d="M684 0h-192v672l-504 872h221l379 -659l379 659h221l-504 -872v-672zM883 1999l-336 -305l-90 55l256 340z" />
    <glyph glyph-name="Thorn" unicode="&#xde;" horiz-adv-x="1013" 
d="M340 0h-193v1544h193v-287h29q497 0 559.5 -169.5t62.5 -284.5q0 -222 -150.5 -332.5t-389.5 -110.5h-111v-360zM340 532h61q184 0 297 59.5t113 223.5q0 233 -174 251.5t-246 18.5h-51v-553z" />
    <glyph glyph-name="germandbls" unicode="&#xdf;" horiz-adv-x="1187" 
d="M139 1266q0 536 455 536q189 0 316.5 -123.5t127.5 -318.5q0 -227 -196 -342q147 -48 233 -188t86 -281q0 -259 -173.5 -426.5t-409.5 -155.5v172q162 0 280.5 116.5t118.5 279.5q0 164 -110 261.5t-289 110.5v180q117 0 196.5 81.5t79.5 196.5t-78 190t-184 75
t-159.5 -48t-78 -120.5t-27.5 -157.5t-3 -159v-1145h-185v791h-82v172h82v303z" />
    <glyph glyph-name="agrave" unicode="&#xe0;" horiz-adv-x="1138" 
d="M852 479q0 147 -84 245.5t-225 98.5t-223 -102t-82 -241t79.5 -244t224.5 -105q144 0 227 100.5t83 247.5zM842 799v159h184v-958h-184v150h-4q-55 -82 -138.5 -132.5t-191.5 -50.5q-210 0 -332.5 152.5t-122.5 361.5t125.5 357.5t329.5 148.5t330 -188h4zM526 1503
l256 -340l-90 -55l-336 305z" />
    <glyph glyph-name="aacute" unicode="&#xe1;" horiz-adv-x="1138" 
d="M852 479q0 147 -84 245.5t-225 98.5t-223 -102t-82 -241t79.5 -244t224.5 -105q144 0 227 100.5t83 247.5zM842 799v159h184v-958h-184v150h-4q-55 -82 -138.5 -132.5t-191.5 -50.5q-210 0 -332.5 152.5t-122.5 361.5t125.5 357.5t329.5 148.5t330 -188h4zM782 1413
l-336 -305l-90 55l256 340z" />
    <glyph glyph-name="acircumflex" unicode="&#xe2;" horiz-adv-x="1138" 
d="M852 479q0 147 -84 245.5t-225 98.5t-223 -102t-82 -241t79.5 -244t224.5 -105q144 0 227 100.5t83 247.5zM842 799v159h184v-958h-184v150h-4q-55 -82 -138.5 -132.5t-191.5 -50.5q-210 0 -332.5 152.5t-122.5 361.5t125.5 357.5t329.5 148.5t330 -188h4zM567 1503
l330 -297l-121 -94l-209 197l-207 -197l-118 94z" />
    <glyph glyph-name="atilde" unicode="&#xe3;" horiz-adv-x="1138" 
d="M852 479q0 147 -84 245.5t-225 98.5t-223 -102t-82 -241t79.5 -244t224.5 -105q144 0 227 100.5t83 247.5zM842 799v159h184v-958h-184v150h-4q-55 -82 -138.5 -132.5t-191.5 -50.5q-210 0 -332.5 152.5t-122.5 361.5t125.5 357.5t329.5 148.5t330 -188h4zM735 1313
q69 0 131 98l97 -80q-35 -72 -95.5 -120t-135.5 -48t-181 54q-41 18 -80 34.5t-79 16.5t-70.5 -31t-47.5 -63l-96 81q91 166 228 166q86 0 154.5 -37.5t104 -54t70.5 -16.5z" />
    <glyph glyph-name="adieresis" unicode="&#xe4;" horiz-adv-x="1138" 
d="M852 479q0 147 -84 245.5t-225 98.5t-223 -102t-82 -241t79.5 -244t224.5 -105q144 0 227 100.5t83 247.5zM842 799v159h184v-958h-184v150h-4q-55 -82 -138.5 -132.5t-191.5 -50.5q-210 0 -332.5 152.5t-122.5 361.5t125.5 357.5t329.5 148.5t330 -188h4zM353 1421
q52 0 88 -35.5t36 -87.5t-35.5 -88t-87.5 -36t-88.5 35.5t-36.5 87.5t36 88t88 36zM785 1421q52 0 88 -35.5t36 -87.5t-35.5 -88t-87.5 -36t-88 35.5t-36 87.5t35.5 88t87.5 36z" />
    <glyph glyph-name="aring" unicode="&#xe5;" horiz-adv-x="1138" 
d="M852 479q0 147 -84 245.5t-225 98.5t-223 -102t-82 -241t79.5 -244t224.5 -105q144 0 227 100.5t83 247.5zM842 799v159h184v-958h-184v150h-4q-55 -82 -138.5 -132.5t-191.5 -50.5q-210 0 -332.5 152.5t-122.5 361.5t125.5 357.5t329.5 148.5t330 -188h4zM569 1133
q-78 0 -131 53t-53 131t53 132t132 54t132.5 -55t53.5 -132.5t-54.5 -130t-132.5 -52.5zM570 1225q38 0 66 26.5t28 65.5t-28 66.5t-66 27.5t-65.5 -27.5t-27.5 -66.5t27.5 -65.5t65.5 -26.5z" />
    <glyph glyph-name="ae" unicode="&#xe6;" horiz-adv-x="1652" 
d="M1178 827q-110 0 -183 -67.5t-90 -171.5h537q-16 109 -85 174t-179 65zM452 446q-36 0 -76 -9t-74 -29.5t-55.5 -50t-21.5 -90.5t74.5 -98.5t135.5 -37.5t102 8t76.5 27.5t59 50.5t23.5 74t-25.5 72.5t-62.5 48t-78.5 26.5t-77.5 8zM809 829q128 158 355 158
t342.5 -142.5t115.5 -367.5v-28h-731q0 -130 81.5 -224t197.5 -94t179.5 50t116.5 136l156 -88q-68 -125 -185.5 -193.5t-258.5 -68.5q-211 0 -369 178q-59 -90 -161 -134t-190 -44q-175 0 -290 81.5t-115 231.5q0 149 103.5 235.5t273.5 86.5t277 -88v66q0 248 -252 247
q-168 0 -262 -30v164q134 26 233 26q100 0 148.5 -9t120 -40.5t114.5 -108.5z" />
    <glyph glyph-name="ccedilla" unicode="&#xe7;" horiz-adv-x="903" 
d="M595 987q128 0 236 -63v-238q-113 129 -260 129t-240 -99.5t-93 -241.5t93 -238.5t240 -96.5q146 0 260 127v-235q-115 -64 -243 -64q-236 0 -385.5 145.5t-149.5 363.5t150.5 364.5t391.5 146.5zM399 -371l-108 56l178 280l145 -59z" />
    <glyph glyph-name="egrave" unicode="&#xe8;" horiz-adv-x="999" 
d="M238 449q0 -129 80.5 -223.5t197.5 -94.5q116 0 180 50t117 136l156 -88q-68 -125 -185.5 -193.5t-243.5 -68.5q-230 0 -358.5 143.5t-128.5 365.5t120.5 366.5t342.5 144.5t337.5 -143.5t115.5 -366.5v-28h-731zM521 827q-110 0 -183.5 -67.5t-89.5 -171.5h536
q-16 109 -84.5 174t-178.5 65zM457 1503l256 -340l-90 -55l-336 305z" />
    <glyph glyph-name="eacute" unicode="&#xe9;" horiz-adv-x="999" 
d="M238 449q0 -129 80.5 -223.5t197.5 -94.5q116 0 180 50t117 136l156 -88q-68 -125 -185.5 -193.5t-243.5 -68.5q-230 0 -358.5 143.5t-128.5 365.5t120.5 366.5t342.5 144.5t337.5 -143.5t115.5 -366.5v-28h-731zM521 827q-110 0 -183.5 -67.5t-89.5 -171.5h536
q-16 109 -84.5 174t-178.5 65zM713 1413l-336 -305l-90 55l256 340z" />
    <glyph glyph-name="ecircumflex" unicode="&#xea;" horiz-adv-x="999" 
d="M238 449q0 -129 80.5 -223.5t197.5 -94.5q116 0 180 50t117 136l156 -88q-68 -125 -185.5 -193.5t-243.5 -68.5q-230 0 -358.5 143.5t-128.5 365.5t120.5 366.5t342.5 144.5t337.5 -143.5t115.5 -366.5v-28h-731zM521 827q-110 0 -183.5 -67.5t-89.5 -171.5h536
q-16 109 -84.5 174t-178.5 65zM498 1503l329 -297l-120 -94l-209 197l-207 -197l-119 94z" />
    <glyph glyph-name="edieresis" unicode="&#xeb;" horiz-adv-x="999" 
d="M238 449q0 -129 80.5 -223.5t197.5 -94.5q116 0 180 50t117 136l156 -88q-68 -125 -185.5 -193.5t-243.5 -68.5q-230 0 -358.5 143.5t-128.5 365.5t120.5 366.5t342.5 144.5t337.5 -143.5t115.5 -366.5v-28h-731zM521 827q-110 0 -183.5 -67.5t-89.5 -171.5h536
q-16 109 -84.5 174t-178.5 65zM284 1421q52 0 88 -35.5t36 -87.5t-36 -88t-88 -36t-88 35.5t-36 87.5t36 88t88 36zM716 1421q52 0 88 -35.5t36 -87.5t-36 -88t-88 -36t-88 35.5t-36 87.5t36 88t88 36z" />
    <glyph glyph-name="igrave" unicode="&#xec;" horiz-adv-x="520" 
d="M352 0h-184v958h184v-958zM217 1503l256 -340l-90 -55l-336 305z" />
    <glyph glyph-name="iacute" unicode="&#xed;" horiz-adv-x="520" 
d="M352 0h-184v958h184v-958zM473 1413l-336 -305l-90 55l256 340z" />
    <glyph glyph-name="icircumflex" unicode="&#xee;" horiz-adv-x="520" 
d="M352 0h-184v958h184v-958zM258 1503l330 -297l-121 -94l-209 197l-207 -197l-119 94z" />
    <glyph glyph-name="idieresis" unicode="&#xef;" horiz-adv-x="520" 
d="M352 0h-184v958h184v-958zM44 1421q52 0 88 -35.5t36 -87.5t-36 -88t-88 -36t-88 35.5t-36 87.5t36 88t88 36zM476 1421q52 0 88 -35.5t36 -87.5t-36 -88t-88 -36t-88 35.5t-36 87.5t36 88t88 36z" />
    <glyph glyph-name="eth" unicode="&#xf0;" horiz-adv-x="1105" 
d="M553 811q-68 0 -128 -26.5t-104.5 -71.5t-70 -106.5t-25.5 -129t25.5 -128t70 -106.5t104.5 -73t128 -27t128 27t104 73t70 106.5t26 128t-26 129t-70 106.5t-104 71.5t-128 26.5zM1065 481q0 -231 -145.5 -372.5t-364.5 -141.5t-366.5 147.5t-147.5 362.5t147.5 362.5
t364.5 147.5q70 0 135 -29l4 5q-199 302 -289 385l-323 -187l-103 113l324 186l-207 228l160 90l207 -228l299 170l100 -110l-297 -172q171 -206 353 -501q52 -83 100.5 -209t48.5 -247z" />
    <glyph glyph-name="ntilde" unicode="&#xf1;" horiz-adv-x="1071" 
d="M311 829h4q43 78 122 118t173 40q186 0 260 -111.5t74 -304.5v-571h-184v549q0 143 -29 189t-71 65.5t-122 19.5q-149 0 -188 -101.5t-39 -281.5v-440h-184v958h184v-129zM557.5 1367q98.5 -54 144.5 -54q45 0 77 31.5t55 66.5l96 -80q-35 -72 -95.5 -120t-135.5 -48
t-181 54q-41 18 -80 34.5t-79 16.5t-70.5 -31t-46.5 -63l-97 81q53 83 104 124.5t131 41.5q79 0 177.5 -54z" />
    <glyph glyph-name="ograve" unicode="&#xf2;" horiz-adv-x="1105" 
d="M917.5 114.5q-147.5 -147.5 -364.5 -147.5t-364.5 147.5t-147.5 362.5t147.5 362.5t364.5 147.5t364.5 -147.5t147.5 -362.5t-147.5 -362.5zM553 811q-68 0 -128 -26.5t-104.5 -71.5t-70 -106.5t-25.5 -129t25.5 -128t70 -106.5t104.5 -73t128 -27t128 27t104 73
t70 106.5t26 128t-26 129t-70 106.5t-104 71.5t-128 26.5zM510 1503l256 -340l-90 -55l-336 305z" />
    <glyph glyph-name="oacute" unicode="&#xf3;" horiz-adv-x="1105" 
d="M917.5 114.5q-147.5 -147.5 -364.5 -147.5t-364.5 147.5t-147.5 362.5t147.5 362.5t364.5 147.5t364.5 -147.5t147.5 -362.5t-147.5 -362.5zM553 811q-68 0 -128 -26.5t-104.5 -71.5t-70 -106.5t-25.5 -129t25.5 -128t70 -106.5t104.5 -73t128 -27t128 27t104 73
t70 106.5t26 128t-26 129t-70 106.5t-104 71.5t-128 26.5zM766 1413l-336 -305l-90 55l256 340z" />
    <glyph glyph-name="ocircumflex" unicode="&#xf4;" horiz-adv-x="1105" 
d="M917.5 114.5q-147.5 -147.5 -364.5 -147.5t-364.5 147.5t-147.5 362.5t147.5 362.5t364.5 147.5t364.5 -147.5t147.5 -362.5t-147.5 -362.5zM553 811q-68 0 -128 -26.5t-104.5 -71.5t-70 -106.5t-25.5 -129t25.5 -128t70 -106.5t104.5 -73t128 -27t128 27t104 73
t70 106.5t26 128t-26 129t-70 106.5t-104 71.5t-128 26.5zM551 1503l330 -297l-121 -94l-209 197l-207 -197l-119 94z" />
    <glyph glyph-name="otilde" unicode="&#xf5;" horiz-adv-x="1105" 
d="M917.5 114.5q-147.5 -147.5 -364.5 -147.5t-364.5 147.5t-147.5 362.5t147.5 362.5t364.5 147.5t364.5 -147.5t147.5 -362.5t-147.5 -362.5zM553 811q-68 0 -128 -26.5t-104.5 -71.5t-70 -106.5t-25.5 -129t25.5 -128t70 -106.5t104.5 -73t128 -27t128 27t104 73
t70 106.5t26 128t-26 129t-70 106.5t-104 71.5t-128 26.5zM395 1421q80 0 178.5 -54t144.5 -54t77.5 31.5t54.5 66.5l96 -80q-35 -72 -95 -120t-137 -48t-179 54q-41 18 -80 34.5t-79 16.5t-71 -31t-47 -63l-96 81q91 166 233 166z" />
    <glyph glyph-name="odieresis" unicode="&#xf6;" horiz-adv-x="1105" 
d="M917.5 114.5q-147.5 -147.5 -364.5 -147.5t-364.5 147.5t-147.5 362.5t147.5 362.5t364.5 147.5t364.5 -147.5t147.5 -362.5t-147.5 -362.5zM553 811q-68 0 -128 -26.5t-104.5 -71.5t-70 -106.5t-25.5 -129t25.5 -128t70 -106.5t104.5 -73t128 -27t128 27t104 73
t70 106.5t26 128t-26 129t-70 106.5t-104 71.5t-128 26.5zM337 1421q52 0 88 -35.5t36 -87.5t-36 -88t-88 -36t-88 35.5t-36 87.5t36 88t88 36zM769 1421q52 0 88 -35.5t36 -87.5t-36 -88t-88 -36t-88 35.5t-36 87.5t36 88t88 36z" />
    <glyph glyph-name="divide" unicode="&#xf7;" 
d="M68 612h1048v-176h-1048v176zM592 254q53 0 90 -38t37 -91t-37 -89t-90 -36t-90 36t-37 89t37 91t90 38zM592 1049q53 0 90 -38t37 -91.5t-37 -89t-90 -35.5t-90 35.5t-37 89t37 91.5t90 38z" />
    <glyph glyph-name="oslash" unicode="&#xf8;" horiz-adv-x="1105" 
d="M1065 477q0 -215 -147.5 -362.5t-350.5 -147.5t-348 119l-125 -131l-63 63l125 127q-115 165 -115 332q0 215 147.5 362.5t364.5 147.5q86 0 173 -30.5t153 -88.5l135 138l63 -66l-133 -131q121 -164 121 -332zM540 811q-122 0 -218.5 -97.5t-96.5 -220.5t66 -219
l457 469q-86 68 -208 68zM354 209q80 -66 208 -66t223.5 100t95.5 226t-72 207z" />
    <glyph glyph-name="ugrave" unicode="&#xf9;" horiz-adv-x="1048" 
d="M303 958v-530q0 -205 77 -247t173 -42t144 78t48 211v530h185v-550q0 -316 -149.5 -378.5t-306 -62.5t-256 118t-99.5 323v550h184zM481 1503l256 -340l-90 -55l-336 305z" />
    <glyph glyph-name="uacute" unicode="&#xfa;" horiz-adv-x="1048" 
d="M303 958v-530q0 -205 77 -247t173 -42t144 78t48 211v530h185v-550q0 -316 -149.5 -378.5t-306 -62.5t-256 118t-99.5 323v550h184zM737 1413l-336 -305l-90 55l256 340z" />
    <glyph glyph-name="ucircumflex" unicode="&#xfb;" horiz-adv-x="1048" 
d="M303 958v-530q0 -205 77 -247t173 -42t144 78t48 211v530h185v-550q0 -316 -149.5 -378.5t-306 -62.5t-256 118t-99.5 323v550h184zM522 1503l330 -297l-121 -94l-209 197l-207 -197l-118 94z" />
    <glyph glyph-name="udieresis" unicode="&#xfc;" horiz-adv-x="1048" 
d="M303 958v-530q0 -205 77 -247t173 -42t144 78t48 211v530h185v-550q0 -316 -149.5 -378.5t-306 -62.5t-256 118t-99.5 323v550h184zM308 1421q52 0 88 -35.5t36 -87.5t-36 -88t-88 -36t-88 35.5t-36 87.5t36 88t88 36zM740 1421q52 0 88 -35.5t36 -87.5t-36 -88t-88 -36
t-88 35.5t-36 87.5t36 88t88 36z" />
    <glyph glyph-name="yacute" unicode="&#xfd;" horiz-adv-x="991" 
d="M-27 958h215l324 -608l301 608h207l-776 -1507h-209l377 713zM709 1413l-336 -305l-90 55l256 340z" />
    <glyph glyph-name="thorn" unicode="&#xfe;" horiz-adv-x="1138" 
d="M301 799q125 188 328 188q204 0 330 -147.5t126 -358.5t-123 -362.5t-335 -151.5q-102 0 -186.5 50.5t-139.5 132.5h-4v-699h-184v2327h184v-979h4zM818 232q83 101 83 247q0 147 -84 245.5t-224 98.5t-223 -101.5t-83 -241t79.5 -244.5t223.5 -105q145 0 228 101z" />
    <glyph glyph-name="ydieresis" unicode="&#xff;" horiz-adv-x="991" 
d="M-27 958h215l324 -608l301 608h207l-776 -1507h-209l377 713zM280 1421q52 0 87.5 -35.5t35.5 -87.5t-35.5 -88t-87.5 -36t-88 35.5t-36 87.5t36 88t88 36zM712 1421q52 0 88 -35.5t36 -87.5t-36 -88t-88 -36t-88 35.5t-36 87.5t36 88t88 36z" />
    <glyph glyph-name="OE" unicode="&#x152;" horiz-adv-x="2340" 
d="M1470 258h-4q-104 -141 -268 -217t-341 -75t-324.5 62.5t-257 169t-173 255t-63.5 316.5t64.5 315.5t174 256t257 173t313.5 63.5q295 -13 431 -121t187 -182h4v270h809v-176h-634v-432h616v-176h-616v-584h634v-176h-809v258zM1281 328q183 181 183 443t-175.5 444
t-375.5 182t-314 -50.5t-241 -183t-127 -393.5t183.5 -442t433.5 -181t433 181z" />
    <glyph glyph-name="oe" unicode="&#x153;" horiz-adv-x="1837" 
d="M1356 827q-110 0 -183 -67.5t-90 -171.5h537q-16 109 -85 174t-179 65zM553 811q-68 0 -128 -26.5t-104.5 -71.5t-70 -106.5t-25.5 -129t25.5 -128t70 -106.5t104.5 -73t128 -27t128 27t104 73t70 106.5t26 128t-26 129t-70 106.5t-104 71.5t-128 26.5zM1075 449
q0 -130 81.5 -224t197.5 -94t179.5 50t117.5 136l155 -88q-68 -125 -185.5 -193.5t-258.5 -68.5q-193 0 -281 80t-118 131q-70 -104 -180.5 -158.5t-224.5 -53.5t-207 40t-161.5 107.5t-108.5 162t-40 255t147.5 309t364.5 147.5q187 -7 281 -86.5t129 -128.5
q131 207 395 215q217 0 332.5 -142.5t115.5 -367.5v-28h-731z" />
    <glyph glyph-name="Scaron" unicode="&#x160;" horiz-adv-x="1099" 
d="M328 1181q0 -82 60 -134t155 -91l110 -43q192 -77 287.5 -181t95.5 -299t-142.5 -330.5t-339.5 -135.5t-330 121.5t-158 310.5l194 41q0 -129 86 -211t209.5 -82t206 89t82.5 229.5t-108.5 198t-157.5 77.5l-107 45q-162 71 -249 157t-87 235q0 179 135.5 289t319.5 110
q129 0 231.5 -60.5t165.5 -173.5l-153 -92q-88 146 -228 146q-184 0 -231 -84t-47 -132zM342 2089l207 -197l209 197l121 -94l-330 -297l-326 297z" />
    <glyph glyph-name="scaron" unicode="&#x161;" horiz-adv-x="786" 
d="M229 254q67 -123 171 -123q62 0 105.5 37t43.5 87t-17.5 71.5t-50.5 44.5l-180 96q-89 43 -136.5 96.5t-47.5 128.5q0 131 82 213t185 82q194 0 278 -168l-150 -80q-16 35 -49 59.5t-73 24.5t-70.5 -26.5t-30.5 -62.5t19.5 -59.5t50 -44t70.5 -38t172 -73t132 -218.5
q0 -151 -96 -242.5t-218 -91.5t-217 58.5t-130 156.5zM184 1503l207 -196l209 196l121 -94l-330 -297l-325 297z" />
    <glyph glyph-name="Ydieresis" unicode="&#x178;" horiz-adv-x="1173" 
d="M684 0h-192v672l-504 872h221l379 -659l379 659h221l-504 -872v-672zM372 2007q52 0 88 -36t36 -88t-36 -88t-88 -36t-88 36t-36 88t36 88t88 36zM804 2007q52 0 88 -36t36 -88t-36 -88t-88 -36t-88 36t-36 88t36 88t88 36z" />
    <glyph glyph-name="florin" unicode="&#x192;" 
d="M98 -129q160 0 215.5 98.5t85.5 294.5l109 631h-133l18 139h144l43 254q31 202 121.5 313t281.5 111q68 0 123 -14l-33 -172q-37 14 -91 14q-102 0 -142.5 -67t-67.5 -207l-45 -232h264l-18 -139h-268l-113 -621q-23 -125 -50.5 -230t-110.5 -227t-353 -122h-49l30 176
h39z" />
    <glyph glyph-name="circumflex" unicode="&#x2c6;" horiz-adv-x="962" 
d="M479 1503l330 -297l-121 -94l-209 197l-207 -197l-118 94z" />
    <glyph glyph-name="tilde" unicode="&#x2dc;" horiz-adv-x="1044" 
d="M688 1313q69 0 131 98l96 -80q-35 -72 -95 -120t-135 -48t-181 54q-41 18 -80 34.5t-79 16.5t-70.5 -31t-47.5 -63l-96 81q91 166 227 166q87 0 155.5 -37.5t104 -54t70.5 -16.5z" />
    <glyph glyph-name="endash" unicode="&#x2013;" horiz-adv-x="1024" 
d="M1024 733v-153h-1024v153h1024z" />
    <glyph glyph-name="emdash" unicode="&#x2014;" horiz-adv-x="2048" 
d="M2048 733v-153h-2048v153h2048z" />
    <glyph glyph-name="quoteleft" unicode="&#x2018;" horiz-adv-x="567" 
d="M123 1030l272 547l115 -47l-225 -563z" />
    <glyph glyph-name="quoteright" unicode="&#x2019;" horiz-adv-x="567" 
d="M444 1513l-272 -546l-115 47l226 563z" />
    <glyph glyph-name="quotesinglbase" unicode="&#x201a;" horiz-adv-x="567" 
d="M496 180l-273 -547l-112 48l225 563z" />
    <glyph glyph-name="quotedblleft" unicode="&#x201c;" horiz-adv-x="899" 
d="M463 1030l272 547l115 -47l-225 -563zM123 1030l272 547l115 -47l-225 -563z" />
    <glyph glyph-name="quotedblright" unicode="&#x201d;" horiz-adv-x="899" 
d="M436 1513l-272 -546l-115 47l225 563zM776 1513l-272 -546l-115 47l225 563z" />
    <glyph glyph-name="quotedblbase" unicode="&#x201e;" horiz-adv-x="899" 
d="M487 180l-272 -547l-113 48l226 563zM827 180l-272 -547l-113 48l226 563z" />
    <glyph glyph-name="dagger" unicode="&#x2020;" 
d="M684 1778v-564h371v-176h-371v-1218h-184v1218h-371v176h371v564h184z" />
    <glyph glyph-name="daggerdbl" unicode="&#x2021;" 
d="M684 1778v-490h371v-176h-371v-250h371v-176h-371v-864h-184v864h-371v176h371v250h-371v176h371v490h184z" />
    <glyph glyph-name="bullet" unicode="&#x2022;" 
d="M592 387q-80 0 -149.5 29.5t-122 82t-83 123t-30.5 150.5t29.5 150.5t82 123t123 83t150.5 30.5t150.5 -30.5t123 -83t83 -123t30.5 -150.5t-30.5 -150.5t-84 -123t-123 -82t-149.5 -29.5z" />
    <glyph glyph-name="ellipsis" unicode="&#x2026;" horiz-adv-x="2048" 
d="M1024 205q49 0 84 -36t35 -84t-35 -83t-84 -35t-84 35t-35 83t35 84t84 36zM1708 205q49 0 84 -36t35 -84t-35 -83t-84 -35t-84 35t-35 83t35 84t84 36zM340 205q49 0 84 -36t35 -84t-35 -83t-84 -35t-84 35t-35 83t35 84t84 36z" />
    <glyph glyph-name="perthousand" unicode="&#x2030;" horiz-adv-x="2273" 
d="M405.5 1577q73.5 0 139 -27.5t115 -75t78 -112t28.5 -138t-29.5 -137t-79 -110.5t-115 -75t-137 -28t-137 28t-115 75t-79 110.5t-29.5 137t28.5 138t78 112t115 75t139 27.5zM405.5 1454q-47.5 0 -90.5 -18.5t-75.5 -49t-52 -72.5t-19.5 -89t19.5 -88t52 -72t75.5 -49.5
t90.5 -18.5t90.5 18.5t75.5 49.5t52 72t19.5 88t-19.5 89t-52 72.5t-75.5 49t-90.5 18.5zM1233 1524l-901 -1557l-94 51l903 1559zM1067 670q74 0 139.5 -28t114.5 -75t77.5 -111.5t28.5 -138t-29.5 -137t-78.5 -110.5t-114.5 -75t-137.5 -28t-137.5 28t-114.5 75
t-78.5 110.5t-29.5 137t28.5 138t77.5 111.5t114.5 75t139.5 28zM1067 547q-47 0 -90 -18.5t-76 -49t-52.5 -72.5t-19.5 -89.5t19.5 -88.5t52.5 -71.5t76 -49t90 -18.5t90 18.5t76 49t52.5 71.5t19.5 88.5t-19.5 89.5t-52.5 72.5t-76 49t-90 18.5zM1870 670q74 0 139.5 -28
t114.5 -75t77.5 -111.5t28.5 -138t-29.5 -137t-78.5 -110.5t-114.5 -75t-137.5 -28t-137.5 28t-114.5 75t-79 110.5t-30 137t29 138t78 111.5t114.5 75t139.5 28zM1870 547q-47 0 -90 -18.5t-76 -49t-52.5 -72.5t-19.5 -89.5t19.5 -88.5t52.5 -71.5t76 -49t90 -18.5t90 18.5
t75.5 49t52 71.5t19.5 88.5t-19.5 89.5t-52 72.5t-75.5 49t-90 18.5z" />
    <glyph glyph-name="guilsinglleft" unicode="&#x2039;" horiz-adv-x="688" 
d="M532 264l-114 -84l-373 475l373 492l114 -84l-305 -408z" />
    <glyph glyph-name="guilsinglright" unicode="&#x203a;" horiz-adv-x="688" 
d="M461 655l-305 408l114 84l373 -492l-373 -475l-114 84z" />
    <glyph glyph-name="trademark" unicode="&#x2122;" horiz-adv-x="1925" 
d="M1855 682h-131v731h-4l-295 -731h-79l-287 731h-4v-731h-131v862h215l247 -608l256 608h213v-862zM766 1413h-283v-731h-131v731h-282v131h696v-131z" />
    <glyph glyph-name="Lslash" horiz-adv-x="788" 
d="M340 176h469v-176h-662v655l-165 -118v198l165 111v698h193v-581l242 170v-197l-242 -162v-598z" />
    <glyph glyph-name="breve" horiz-adv-x="1003" 
d="M503 1268q83 0 130 41t80 112h145q-24 -127 -125 -207.5t-230.5 -80.5t-230.5 80.5t-127 207.5h148q31 -72 79 -112.5t131 -40.5z" />
    <glyph glyph-name="caron" horiz-adv-x="966" 
d="M274 1503l207 -196l209 196l121 -94l-330 -297l-325 297z" />
    <glyph glyph-name="dotaccent" horiz-adv-x="737" 
d="M370 1421q52 0 88 -35.5t36 -87.5t-36 -88t-88 -36t-88 35.5t-36 87.5t36 88t88 36z" />
    <glyph glyph-name="dotlessi" horiz-adv-x="520" 
d="M352 0h-184v958h184v-958z" />
    <glyph glyph-name="fi" horiz-adv-x="1048" 
d="M881 0h-185v958h185v-958zM788.5 1526q53.5 0 90 -38t36.5 -91.5t-36.5 -89t-90 -35.5t-90 35.5t-36.5 89t36.5 91.5t90 38zM164 1425q0 377 309 377q68 0 129 -24v-187q-29 12 -61.5 25.5t-71.5 13.5t-65.5 -27.5t-41 -74t-14.5 -158.5v-412h254v-172h-254v-786h-184
v786h-84v172h84v467z" />
    <glyph glyph-name="fl" horiz-adv-x="1017" 
d="M883 0h-185v1778h185v-1778zM164 1425q0 377 309 377q68 0 129 -24v-187q-29 12 -61.5 25.5t-71.5 13.5t-65.5 -27.5t-41 -74t-14.5 -158.5v-412h254v-172h-254v-786h-184v786h-84v172h84v467z" />
    <glyph glyph-name="fraction" horiz-adv-x="337" 
d="M672 1524l-901 -1557l-105 58l901 1552z" />
    <glyph glyph-name="hungarumlaut" horiz-adv-x="962" 
d="M885 1395l-336 -305l-90 55l256 340zM504 1413l-336 -305l-90 55l256 340z" />
    <glyph glyph-name="lslash" horiz-adv-x="522" 
d="M367 0h-185v844l-166 -125v190l166 117v752h185v-648l168 132v-193l-168 -125v-944z" />
    <glyph glyph-name="minus" 
d="M68 612h1048v-176h-1048v176z" />
    <glyph glyph-name="ogonek" horiz-adv-x="696" 
d="M307 -211q0 -96 115 -96q66 0 102 26l-14 -118q-56 -35 -112 -35q-105 0 -165.5 45.5t-60.5 122.5q0 78 52 137t114 96h94v-4q-125 -88 -125 -174z" />
    <glyph glyph-name="ring" horiz-adv-x="737" 
d="M368 1133q-77 0 -130.5 53t-53.5 131t53.5 132t131.5 54t132 -55t54 -132.5t-55 -130t-132 -52.5zM370 1225q38 0 65.5 26.5t27.5 65.5t-27.5 66.5t-65.5 27.5t-66 -27.5t-28 -66.5t28 -65.5t66 -26.5z" />
    </font>
</defs>
</svg>
