<svg xmlns="http://www.w3.org/2000/svg" width="481.436" height="176.936" viewBox="0 0 481.436 176.936"><g fill="#87C6BD"><path d="M387.062 66.728l.012-.003c-.065-.002-.053 0-.012.003zM58.596.186c-.06-.047-.124-.083-.186-.142l.106.155c.002-.002.046-.01.08-.014zM65.764 66.93c.035-.072.086-.14.116-.21-.094.074-.116.143-.116.21zM92.92 168.29l-.47.034c.132.093.25.135.354.133.043-.047.082-.104.117-.167z"/><path d="M93.413 170.713c1.35 1.86.52.327.495-.273l-.316.1c-.738-1.182-.196-1.705-.518-2.336-.043.042-.083.108-.123.174l.132-.008c-.05.14-.142.175-.247.175-.104.124-.24.167-.464-.13l.108-.003c-.466-.326-1.045-1.086-1.31-1.438-.016-.038-.025-.066-.044-.107-2.84-6.163-36.642-53.354-44.322-64.415.097-.09.21-.176.357-.247l-.457.106c-.036-.052-.067-.098-.103-.146.126-.053.162-.084-.052-.075l-.418-.608c4.69-2.902 11.948-7.618 19.703-13.5.184.024.37.036.548.01l-.292-.204c3.066-2.333 6.205-4.847 9.29-7.5.32-.107.595-.2.788-.286-.14.003-.3.004-.44-.015l.674-.58c.057-.007.117-.02.182-.05-.017-.022-.024-.05-.04-.075.812-.71 1.615-1.433 2.414-2.16l.115.21-.002-.312c14.066-12.854 25.817-28.39 22.332-42.555.287-1.533.06-3.28-.443-4.967-.27-1.198-.744-2.35-1.107-3.472-.177-.562-.33-1.115-.435-1.667-.146-.563-.28-1.13-.336-1.692l-1.19-.8c.19-1.567-.995-3.326-2.163-4.948-.605-.744-1.236-1.504-1.816-2.318-.622-.75-1.19-1.562-1.642-2.494l-.458-.21c-.252-.12-.665-.36-1.152-.664-.062-.068-.113-.087-.065-.04-1.873-1.163-4.84-3.203-4.84-3.203s-3.017-1.653-3.885-1.957c-.866-.31-1.654-.615-2.398-.9-1.48-.64-2.77-1.28-4.063-1.9-4.233-2-20.995-4.083-34.317-2.87-4.097.63-8.24 1.76-12.22 2.887 0 0-2.07 1.343-2.574 1.585-.504.232-1 .444-1.48.6-.475.186-.934.31-1.374.34-1.805.097-6.254 4.727-6.54 5.138l-.795 1.372c-.278.46-.585.91-.972 1.323-.364.45-.8.873-1.38 1.246-.41-.068-.896.272-1.342.87-.43.61-.854 1.436-1.247 2.22-.728 1.63-3.212 4.743-3.617 5.77-.313 1.068-.493 2.172-.742 3.257l-1.69 7.397 6.687-.823 2.62-.323c.51-.12 1.022-.24 1.554-.368.528-.104 1.565-.307 1.814-.603.217-.296 4.112-6.69 6.026-9.018 0 0 .106-.075.292-.21.208-.118.504-.287.86-.486.12-.078.262-.156.402-.234l-.515 2.49-3.053 8.994-.158.653c-.106.414-.25 1.01-.373 1.732-.272 1.44-.632 3.362-.994 5.285l-1.438 7.68s-1.948 12.18-2.166 12.372l-.074.493c-.594 4.114-.95 8.32-1.46 12.39-.367 4.19-.888 8.24-2.05 11.917-.775.626-11.314 67.304-11.194 68.12 0 0-.164 1.242-.364 2.242h-.023s-.002.18-.005.247c-.32 2.133-.72 5.046-.7 5.975-.425 3.392-.872 7.085-.802 7.855.13 1.434 3.008 4.188 4.25 4.417 1.238.23 5.405-.72 5.405-.72s4.264-.933 4.637-2.62c.224-1.012 1.42-6.42 2.345-10.594.34-.987.72-2.703 1.052-4.518.038-.175.062-.045.062-.045h-.012c.186-1 .354-2.193.49-2.87.705-2.304 1.933-8.424 8.79-46.288 1.18 1.104 2.362 2.152 3.56 3.287 1.253 1.42 2.533 2.886 3.957 4.374l.265.266.14.156.248.287.444.503c-.138-.146-.164-.175.04.044l.024.027.237.253.82.88c1.423 1.55 2.97 3.06 4.554 4.594 1.556 1.587 3.156 3.175 4.664 4.89 1.497 1.735 2.928 3.528 4.153 5.52.156.982 3.4 4.895 6.773 8.774 3.377 3.88 6.925 7.678 7.655 8.174l-.438-2.508c4.972 5.086 6.13 8.467 10.912 12.467l-.427-.08c.39.877 2.73-.598 6.83 9.115l-.094.086c.252.24.437.068.66.808l-.604-1.795c.935.55 1.99.808 2.985 1.762.097.312-.026.562-.153.72 0 0 .61.586 1.223 1.172l1.26 1.15.14 1.313c1.044.445 1.942-1.096 3.19 1.566.118-1.587 1.47.48 1.667-.198-.004.2.07.58.11.902 1.285 1.058 3.993 1.49 3.24-.336-.762-1.825-1.53-3.9-1.65-4.97zm-47.53-68.568c-.094-.015-.432-.082-.63-.124.16-.098.33-.2.496-.304l.134.43zm-7.342-15.968c-.66.368-1.354.663-2.037.982-1.384.62-2.695 1.275-4.128 1.86-.92.32-1.62.636-2.198.943l.546-3.03c.132-.476.2-.993.268-1.482l.15-.82L40.09 26.57c.608-3.07 1.34-6.616 1.812-8.93.07-.347.118-.682.154-1.01.316-.058.634-.114.954-.164 2.974-.498 10.218-.615 12.508-.604 1.15.006 2.105.033 2.773.095l1.05.066s6.812.853 9.447 1.55c2.617.664 8.23 3.69 8.402 4.01.616.407 1.194.837 1.794 1.247.51.466 1.12.873 1.59 1.352.462.48 1.008.92 1.38 1.437l.64.733c.135.217.28.425.434.632 1.118 1.77 2.04 4.74 2.168 7.484.333 5.644-2.08 11.91-5.955 16.804-1.156.66-8.744 11.68-11.938 14.57l.038-.196s-6.034 5.4-8.44 6.804l.057-.19c-4.904 3.855-9.846 7.468-14.918 10.72-1.278.776-2.548 1.59-3.844 2.31-.17.11-1.022.55-1.657.885z"/><path d="M84.202 170.028l-.054-.053c-.317.302-.12.27.054.053zM90.976 175.252c.173.312.257.715.438 1.038.417.454.43.104.378-.355l-.816-.683zM93.877 170.353l.383-.117c-.306-.19-.388-.09-.383.117zM99.188 120.417c.043-.073-.02-.116 0 0z"/><path d="M150.196 79.336c-.597-2.035-1.85-4.707-3.762-7.107-1.884-2.424-4.43-4.388-6.542-5.517-2.13-1.134-3.744-1.528-4.214-1.606l.88 1.045c.423.52.81 1.05.81 1.05-3.523-1.375-5.96-1.915-8.228-2.325-2.28-.398-4.383-.426-6.89.26l.254-.3c-.25-.07-.44.19-.87.485-.067-.1-.136-.208-.204-.3l-.54-.746c-.296-.387-.486-.603-.486-.603-.24-.163-.595-.398-.75-.474l-.522-.266c-.348-.17-.71-.336-1.054-.48-.506-.18-1.017-.346-1.526-.5l-5.327-1.618-3.21 3.32c-2.887 2.987-4.562 5.715-6.203 8.48 0 0-1.642 1.612-3.17 3.28l-2.065 2.31c-.544.643-.906 1.068-.906 1.068s-.65 1.18-1.51 2.977c-.897 1.79-1.99 4.2-3.017 6.635-1.03 2.43-1.957 4.902-2.628 6.77l-1.067 3.132.65 1.825c-1.667 1.618-2.32 3.94-2.8 6.35-.507 2.403-.82 4.89-1.98 7.06l1 .276c-.186 1.284-.777 1.11-1.012 1.405-.45 3.053-.592 6.282-.448 9.605.144 3.315.69 6.84 1.947 10.434 1.24 3.568 3.43 7.313 6.616 10.132l1.194 1.04c.413.317.85.592 1.278.883.863.568 1.715 1.152 2.65 1.556.93.42 1.812.912 2.797 1.227.98.318 1.986.642 2.922.822.7.476 2.23.656 3.72.72 1.473.018 2.887-.06 3.5.18 17.878-1.126 29.54-21.79 32.468-27.526 10.706-25.522 9.04-36.4 8.838-40.964.18-.455.04-1.94-.592-3.996zm-37.71-4.114zm.016.003h-.01l-.004-.002.014.002zm22.735 18.57c-.18.732-4.197 12.455-4.197 12.455s-1.434 4.78-2.248 6.467c0 0-1.447 9.054-9.09 16.436-7.642 7.384-14.86 5.897-15.37 5.396-.055-.36-.08-.662-.16-.84-.074-.178-.563-.58-.715-.62-.138-.063-2.333.196-3.485-2.42-1.152-2.614-1.463-4.85-1.463-4.85.17-16.65 4.305-24.652 4.305-24.652l5.73-12.35c.6-1 .88-2.5 1.897-2.936 1.037-.396.035-2.198.157-2.538-.12-1.214 1.6-1.153 1.312-.85.356-.97-.362-2.61.98-3.407.722.224.988-.73 1.265-1.635.29-.866 1.105-1.298 1.105-1.298.326-.077.578-.207.79-.37.392.204.758.407 1.04.602.41.296.664.513.664.513l.15.103c.138.033.314.095.55.146.287-.004.56.065 1.022-.056.212-.036 1.273-.438 1.69-.818.316-.3.572-.453.912-.917.247.276 1.86 1.41 1.995 1.647 1.078.02 8.125.645 8.85.4.002 0 6.823 2.362 2.312 16.388zM203.635 123.365c.062.137.12.283.166.5-.023-.29-.086-.424-.165-.5zM189.033 131.523c-.032-.003-.048-.013-.08-.015-.005.023.03.023.08.015zM178.18 81.878l.44.293c-.162-.175-.306-.254-.44-.292zM170.992 66.728l.012-.003c-.065-.002-.053 0-.012.003zM295.833 64.585c.064-.06.012-.124 0 0zM317.503 150.334c-.017-.062-.037-.124-.063-.19l-.117.392c.094-.052.15-.12.18-.202z"/><path d="M318.936 151.183c1.474-.044.334-.235-.022-.558l-.028.312c-.902-.122-1.054-.867-1.51-.995.013.06.038.13.064.2l.032-.108c.066.125.062.22.03.3.042.156.03.288-.206.283l.025-.083c-.325.17-1.342-.46-1.342-.46-.2.644-1.326.38-2.472-.033-1.15-.426-2.332-1.09-2.74-1.048-.917-.688-3.793-.69-4.656-1.16-1.05-.318-1.14-.473-1.285-.705-1.062-.03-2.764-1.062-3.02.215-1.44-.56-1.44-.688-1.43-.436-.582-.538-9.396-1.28-10.006-1.395 0 0-9.98-3.31-11.53-8.05-2.442-7.458-.71-14.214-.71-14.214l1.946-11.62s-.397-.007.11-.692l.646-1.056s2.078-8.444 2.722-8.972c.135.045.474-.795.474-.795.396-.288 11.79-35.42 11.803-35.527-.067.062.763-2.912.763-2.912l.543-.854s12.55-33.98 12.326-33.63c.104-.57 1.2-3.897 2.188-7l.096.05c-.033-.023-.062-.035-.094-.056.795-2.5 1.516-4.853 1.58-5.49.147-1.432-2.152-4.675-3.324-5.138-1.174-.462-5.445-.323-5.445-.323s-4.363.103-5.053 1.687l-6.383 14.672-6.27 16.762s-4.927 13.438-5.193 13.618c-3.502 9.458-12.774 38.05-13.685 40.95l-.08-.142-.18 1.432c-.097.037-1.307 3.975-2.112 5.853l-.084-.14c-6.233 21.06-7.344 43.205 11.656 54.152.14.187 6.717 3.31 17.418 3.31 1.422-.093 2.46-.208 2.734-.352 0 0-.374-.312-.747-.62l-.752-.648c4.734-.602 6.976.562 10.916-.775l-.2.29c.306.12.48-.527 1.415-.84.94-.314 2.598-.38 6.082.94l.02.124c.225-.052.183-.288.688-.03 0 0-.312-.143-.62-.304l-.616-.313c.626-.384 1.122-1.067 2.003-1.322.213.104.32.348.37.544l2.17-.607.833.68c.603-.58-.082-2.134 1.938-1.626-.946-.988.742-.927.377-1.46.126.12.385.28.6.438 1.05-.41 2.98-1.26 3.287-1.973 0 0-1.226-.33-2.578-.79-1.36-.467-2.83-1.07-3.484-1.56zM315.792 158.077l-.05.014c.075.43.12.255.05-.013z"/><path d="M304.826 147.127c.246.008.457-.04.603-.19-.69-.086-.714.023-.604.19zM321.82 156.005c.41-.07.19-.282-.11-.505l-.673.253c.246.045.525.212.782.252zM318.914 150.625l.037-.376c-.195.14-.158.263-.036.375zM262.35 77.042c.185-1.033 3.623-11.067 3.77-12.5.147-1.432-2.153-4.673-3.325-5.136-1.174-.464-5.444-.323-5.444-.323s-4.363.104-5.053 1.688l-6.383 14.673-6.27 16.763s-2.443 6.662-3.98 10.667c-.38.732-.844 1.587-1.444 2.666 0 0 .252 2.013-.507 2.068-.698 1.596-1.466 3.204-2.337 4.585-.88 1.374-3.305 7.69-3.305 7.69-.49.855-1.265 2.38-1.265 2.38l-8.42 15.543c-.4 1.295-3.785 4.614-6.942 4.516 0 0-3.123-.192-4.025-3.255-.902-3.062-1.604-4.943-1.604-4.943-1.497-1.123-.357-1.98-1-2.938 0 0 .072-1.39-.264-2.067-.195-.558-.523-1.88-.855-2.69-.325-.82-.534-1.878-.434-3.09.14-.048-.124-.593-.02-1.708l-.116-1.338c.142-1.523-.8-2.7-.093-3.183 0 0 .08-2.007-.124-4.562-.085-1.322-.263-2.48-.358-3.422l-.127-1.115c-.03-.27-.048-.422-.053-.414 0 0-3.492-9.35-3.713-9.462-.803-1.338-6.796-2.294-8.04-2.01-1.252.322-2.805 1.278-4.146 2.316-2.62 2.78-4.785 6.88-6.772 10.622-1.997 3.848-3.893 7.707-6.135 12.185-.572.493-1.123 1.102-1.65 1.788-.366.4-.644.765-.92 1.206-.058.095-.102.202-.158.3 1.255-5.693 2.003-12.205 3.605-18.015l-.495.27c.495-2.033.495-4.69 1.48-6.117.984-1.43-.398-3.633-.348-4.253-.394-1.855 1.353-3.146 1.137-2.42.15-1.887-1.028-3.896.074-6.36.334-.136.52-.552.617-1.123.048-.285.075-.607.087-.952.012-.21 0-.297-.02-.368l-.05-.27-.092-.426c-.014-.136.044-.25.048-.386.02-.096.008-.134.06-.3.063-.19.124-.37.18-.545.11-.332.21-.607.315-.83.21-.44.444-.667.755-.567l-.113-.078c2.314-3.073 1.39-6.626 3.305-10.076 0 0 .096.1.17.252l-.455-1.385c-.312-.902-.73-2.107-1.145-3.312l-.22-.688-.178-.55c-.048-.153-.108-.307-.175-.45-.08-.196-.273-.556-.46-.78-.117-.156-.396-.45-.643-.614-.27-.185-.52-.315-.885-.414-.352-.096-.732-.122-1.07-.083-.238.032-.396.082-.59.148-.17.062-.397.174-.488.236l-.213.162c-.13.106-.29.256-.318.312-.257.336-.314.54-.38.734-.17.678-.134 1.137-.122 1.558-.413.004-.858.002-1.372-.013-.482-.03-1.647-.094-1.84-.11-.06.012-.12.028-.183.05-.272.12-.584.346-.906.578l-2.718 2.084c-.32 1.614-.708 3.3-1.126 4.927-.21.812-.426 1.616-.646 2.363l-.314 1.038-.13.404-.02.07c-.01.017-.022.02.027.188l.102.375c-.044.092-.087.188-.312.204-.357.878-.676 1.74-1.08 2.623l-.114.98-.058.487-.02.27-.092 1.042-.197 2.1s-1.03 3.2-2.062 6.397l-2.136 6.436-2.977 16.245c-.72 4.105-1.44 8.21-1.983 11.29l-.85 5.188.78 2.582c-1.586 3.113-2.12 6.894-2.393 11.033-.065 1.044-.117 2.11-.144 3.248-.02 1.162-.05 2.315.046 3.867.06.795.116 1.67.463 3.068.126.435.218.767.415 1.27.12.294.25.58.39.864l.218.42c.063.122.234.39.356.576.272.405.573.8.895 1.162.354.405.992.98 1.56 1.375.302.213.582.396.925.585.376.197.775.376 1.185.525.41.152 1.72.692 1.72.692l1.554.11s1.944-.408 2.325-.504c1.91-.56 1.904-.724 2.525-1.003.59-.32.782-.467 1.132-.694l.46-.323.332-.25c.93-.716 1.432-1.178 2-1.66 0 0 1.584-2.576 1.83-2.76 1.573-2.23 2.824-4.31 4.046-6.406 1.215-2.09 2.353-4.163 3.468-6.23 2.168-4.105 4.332-8.202 6.465-12.244l.75-1.57c.213-.42.446-.83.677-1.174.467-.686.92-1.15 1.193-.737-.042.428.432 1.68.59 1.922.163.26.285 1.623.38 1.943.146.42.273.87.388 1.336.218.934.438 1.974.595 3.032.4 2.153.696 4.465 1.34 6.6 0 0 .358 1.297.717 2.073.33.76.68 1.523 1.135 2.32l.65 1.173c.24.405.585.896.884 1.332l.955 1.32c.385.45.782.896 1.187 1.33 1.6 1.756 3.547 3.117 5.625 4.146 1.065.443 2.16.866 3.28 1.116 1.14.174 2.278.44 3.434.38 1.157-.012 2.308-.026 3.44-.284 1.135-.217 2.282-.447 3.292-.857.52-.187 1.037-.386 1.547-.593l.762-.318c.245-.106.383-.2.58-.304l2.184-1.218c2.907-1.826 5.503-4.02 7.47-6.264 4.054-4.48 6.906-9.11 9.596-13.75 2.676-4.65 5.02-9.35 7.408-14.11 2.416-3.768 4.023-8.2 5.424-12.828 3.14-8.51 11.296-30.628 11.116-30.344zm-82.51-7.57l.01.004c.017.014.008.008-.01-.003zm-18.493 84.47c0-.01 0-.015 0 0zM395.91 69.473c.006 0 .004 0 .012.003.015.014.005.008-.012-.003zm-18.766 84.468c.022-.008.03-.013 0 0zM353.125 118.75c-.012.062-.04.12-.043.18.06-.063.062-.122.043-.18z"/><path d="M367.554 84.205c.02-1.187-.225-2.526-.408-3.623-.175-.822-.35-1.647-.525-2.48-.137-.796-.388-1.64-.583-2.478-.32-3.296-2.016-6.792-5.092-10.15-.806-.833-1.578-1.657-2.585-2.43-.487-.39-.94-.786-1.468-1.148l-1.637-1.058c-2.24-1.335-4.8-2.447-7.385-3.135-.447-.355-2.168-.717-4.397-.682-2.235.028-4.796.568-7.075 1.37-4.512 1.652-7.743 4.208-8.173 4.75l2.122.167c-2.2 1.653-3.82 2.65-5.338 3.68-1.494 1.032-2.84 2.11-4.06 3.97 0 0-.085.382-.648 1.268-.565.91-4.88 5.16-5.393 5.956-.233.073-3.333 5.954-3.333 5.954s-2.912 7.955-4.035 10.702c-.99 2.41-1.87 4.88-2.416 6.81-.282.96-.513 1.76-.64 2.344l-.22.903.388.892.414.89c-1.5 1.822-1.86 4.37-1.878 7.046.016 2.726.36 5.513.22 8.503l1.042-.106c.478 1.555-.156 1.627-.22 2.08.93 2.81 2.515 5.728 4.856 8.104 2.375 2.367 5.173 3.948 8.002 4.98 2.71.922 5.645 1.19 8.37.87.64-.095 1.245-.222 1.862-.343l.914-.192.83-.257 1.645-.53 1.486-.62c3.886-1.698 6.868-3.714 9.714-5.548 1.258-.138 3.27-2.535 4.312-2.584 1.522-3.29 3.755-5.84 5.866-8.316l.015.168.774-1.327c.107.002.21.07.246.156.31-1.914 2.59-3.555 4.063-5.12l.026.165c3.44-5.11 5.923-10.517 7.89-16.435.48-1.494.933-3.03 1.338-4.644.2-.812.37-1.676.556-2.513.14-.93.316-1.773.41-2.782.097-1.006.195-1.986.148-3.22zm-15.558 1.41s-1.39 8.45-8.104 21.072c-6.3 11.836-18.846 15.304-19.985 15.98-1.143.252-2.474-1.076-2.72-1.253l-.22-.106c-.052-.062-.093-.133-.12-.21-.047-.175-1.287-.325-1.333-.345-1.765-1.022-2.74-5.02-2.663-5.307.296-1.148 1.41-7.56 1.53-7.862.137-.3.73-4.398 1.468-6.332.756-1.923 3.722-9.776 3.86-10.063 1.285-7.937 12.535-17.835 12.752-18.598l.844-.438c.488.11.445.446.504.558.294-.41.798-.607 1.34-.755.547-.115 1.162-.825.646-1.378-.513-.556-1.066-1.093-1.066-1.093 1.21.188 3.255.332 3.438.538.174.207 2.188.956 2.188.956.726.56 3.765 3.887 3.97 4.022.194.182.326.396.45.59.122.192.222.417.296.782.07.37.436.733.485 1.382 0 0 1 1.85 1.167 2.583.317.832 1.39 2.496 1.274 5.275zM478.418 77.042c.186-1.032 3.623-11.066 3.77-12.498s-2.152-4.675-3.325-5.138c-1.173-.464-5.444-.323-5.444-.323s-4.364.104-5.054 1.688l-6.383 14.674-6.27 16.763s-2.442 6.662-3.98 10.667c-.38.732-.844 1.587-1.442 2.666 0 0 .253 2.014-.507 2.07-.697 1.595-1.466 3.203-2.337 4.584-.88 1.374-3.306 7.69-3.306 7.69-.49.855-1.268 2.38-1.268 2.38l-8.42 15.543c-.397 1.295-3.785 4.614-6.94 4.516 0 0-3.123-.192-4.025-3.255-.9-3.062-1.604-4.943-1.604-4.943-1.496-1.123-.356-1.98-1-2.938 0 0 .072-1.39-.264-2.067-.196-.557-.524-1.88-.855-2.688-.325-.82-.534-1.88-.435-3.092.14-.047-.125-.592-.02-1.707l-.116-1.338c.143-1.523-.8-2.7-.093-3.182 0 0 .08-2.01-.125-4.564-.085-1.323-.264-2.48-.357-3.423-.053-.46-.098-.847-.127-1.115-.03-.27-.05-.423-.054-.415 0 0-3.492-9.35-3.713-9.462-.803-1.338-6.796-2.294-8.04-2.01-1.253.322-2.806 1.28-4.146 2.316-2.62 2.78-4.785 6.882-6.772 10.623-1.997 3.848-3.895 7.707-6.135 12.185-.573.493-1.125 1.102-1.65 1.788-.366.4-.645.765-.92 1.206-.06.094-.103.2-.158.3 1.256-5.694 2.003-12.206 3.605-18.016l-.495.27c.495-2.033.495-4.69 1.48-6.117.983-1.43-.398-3.634-.35-4.254-.394-1.854 1.353-3.146 1.138-2.42.15-1.887-1.03-3.896.073-6.36.334-.136.52-.552.616-1.122.046-.284.073-.607.086-.952.012-.21 0-.298-.02-.37l-.052-.268-.093-.426c-.014-.137.046-.25.05-.387.02-.094.01-.132.06-.298.063-.19.125-.37.182-.546.11-.332.21-.606.314-.828.21-.44.443-.667.756-.568l-.113-.077c2.312-3.074 1.388-6.627 3.304-10.076 0 0 .097.1.17.252l-.454-1.386-1.144-3.312-.223-.688-.176-.55c-.05-.153-.108-.306-.176-.45-.077-.196-.27-.556-.46-.78-.115-.154-.395-.447-.643-.612-.27-.187-.52-.316-.885-.416-.35-.096-.73-.12-1.07-.082-.237.032-.395.082-.592.15-.17.06-.396.173-.485.235l-.213.16c-.132.105-.29.257-.318.312-.258.336-.313.54-.38.734-.17.678-.134 1.137-.122 1.558-.412.005-.856.002-1.37-.013-.482-.028-1.648-.094-1.84-.11-.063.013-.122.03-.186.052-.27.118-.584.346-.904.577l-2.72 2.083c-.318 1.615-.708 3.302-1.126 4.93-.21.81-.426 1.616-.646 2.36l-.313 1.04-.13.404-.02.07c-.01.016-.023.02.027.188l.102.374c-.043.092-.086.187-.31.203-.358.88-.677 1.74-1.08 2.623l-.115.98-.057.487-.02.27-.092 1.042-.195 2.102-2.062 6.396-2.135 6.437-2.976 16.245-1.983 11.29-.85 5.188.78 2.58c-1.588 3.114-2.12 6.895-2.395 11.034-.064 1.044-.117 2.11-.144 3.248-.02 1.16-.05 2.314.046 3.866.062.796.116 1.672.465 3.07.128.434.22.766.416 1.27.12.293.25.58.39.863l.218.42c.063.123.233.392.355.577.27.406.572.8.895 1.162.354.405.99.98 1.56 1.375.302.213.583.396.925.585.377.197.775.376 1.186.525.408.152 1.722.692 1.722.692.662.045 1.554.11 1.554.11s1.94-.41 2.323-.504c1.908-.56 1.903-.726 2.524-1.005.59-.32.78-.466 1.13-.693l.463-.323.33-.25c.932-.716 1.433-1.178 2-1.66 0 0 1.586-2.576 1.83-2.76 1.574-2.23 2.824-4.31 4.047-6.406 1.216-2.09 2.354-4.163 3.468-6.23 2.168-4.105 4.332-8.202 6.465-12.244l.75-1.57c.213-.42.445-.83.678-1.174.468-.686.923-1.15 1.193-.737-.042.43.433 1.682.59 1.923.163.26.285 1.623.38 1.943.147.42.274.868.39 1.335.217.933.437 1.973.594 3.03.4 2.155.696 4.466 1.342 6.602 0 0 .355 1.296.715 2.072.332.76.68 1.523 1.135 2.32l.65 1.172c.24.406.586.896.885 1.332l.953 1.32c.387.45.782.896 1.188 1.33 1.6 1.757 3.547 3.117 5.625 4.146 1.067.444 2.16.866 3.282 1.116 1.14.174 2.276.44 3.434.38 1.156-.01 2.307-.026 3.438-.284 1.136-.217 2.283-.447 3.293-.857.52-.188 1.037-.387 1.547-.594l.763-.316c.245-.106.384-.2.58-.304l2.185-1.218c2.906-1.826 5.504-4.02 7.47-6.264 4.055-4.48 6.907-9.11 9.597-13.75 2.676-4.65 5.02-9.35 7.407-14.11 2.416-3.768 4.022-8.2 5.424-12.828 3.135-8.514 11.29-30.632 11.108-30.348zm-82.508-7.57l.012.004c.014.014.005.008-.012-.003zm-18.493 84.47c0-.01 0-.015 0 0z"/></g></svg>